<svg xmlns="http://www.w3.org/2000/svg" xmlns:xlink="http://www.w3.org/1999/xlink" viewBox="0 0 350 364"><defs><style>.cls-1,.cls-3,.cls-4{fill:none;}.cls-2{fill:#4646ff;}.cls-3,.cls-4{stroke:#4646ff;stroke-miterlimit:10;}.cls-3{stroke-width:1.42px;}.cls-4{stroke-width:1.98px;}.cls-5{fill:#61ff72;}.cls-6{clip-path:url(#clip-path);}.cls-7{fill:url(#Sfumatura_senza_nome_112);}.cls-8{clip-path:url(#clip-path-2);}.cls-9{fill:url(#Sfumatura_senza_nome_112-2);}.cls-10{clip-path:url(#clip-path-3);}.cls-11{fill:url(#Sfumatura_senza_nome_112-3);}.cls-12{clip-path:url(#clip-path-4);}.cls-13{fill:url(#Sfumatura_senza_nome_112-4);}.cls-14{clip-path:url(#clip-path-5);}.cls-15{fill:url(#Sfumatura_senza_nome_112-5);}.cls-16{clip-path:url(#clip-path-6);}.cls-17{fill:url(#Sfumatura_senza_nome_112-6);}.cls-18{clip-path:url(#clip-path-7);}.cls-19{fill:url(#Sfumatura_senza_nome_112-7);}.cls-20{clip-path:url(#clip-path-8);}.cls-21{fill:url(#Sfumatura_senza_nome_112-8);}.cls-22{clip-path:url(#clip-path-9);}.cls-23{fill:url(#Sfumatura_senza_nome_112-9);}.cls-24{clip-path:url(#clip-path-10);}.cls-25{fill:url(#Sfumatura_senza_nome_112-10);}.cls-26{clip-path:url(#clip-path-11);}.cls-27{fill:url(#Sfumatura_senza_nome_112-11);}.cls-28{clip-path:url(#clip-path-12);}.cls-29{fill:url(#Sfumatura_senza_nome_112-12);}.cls-30{clip-path:url(#clip-path-13);}.cls-31{fill:url(#Sfumatura_senza_nome_112-13);}.cls-32{clip-path:url(#clip-path-14);}.cls-33{fill:url(#Sfumatura_senza_nome_112-14);}.cls-34{clip-path:url(#clip-path-15);}.cls-35{fill:url(#Sfumatura_senza_nome_112-15);}.cls-36{clip-path:url(#clip-path-16);}.cls-37{fill:url(#Sfumatura_senza_nome_112-16);}.cls-38{clip-path:url(#clip-path-17);}.cls-39{fill:url(#Sfumatura_senza_nome_112-17);}.cls-40{clip-path:url(#clip-path-18);}.cls-41{fill:url(#Sfumatura_senza_nome_112-18);}.cls-42{clip-path:url(#clip-path-19);}.cls-43{fill:url(#Sfumatura_senza_nome_112-19);}.cls-44{clip-path:url(#clip-path-20);}.cls-45{fill:url(#Sfumatura_senza_nome_112-20);}.cls-46{clip-path:url(#clip-path-21);}.cls-47{fill:url(#Sfumatura_senza_nome_112-21);}.cls-48{clip-path:url(#clip-path-22);}.cls-49{fill:url(#Sfumatura_senza_nome_112-22);}.cls-50{clip-path:url(#clip-path-23);}.cls-51{fill:url(#Sfumatura_senza_nome_112-23);}.cls-52{clip-path:url(#clip-path-24);}.cls-53{fill:url(#Sfumatura_senza_nome_112-24);}.cls-54{clip-path:url(#clip-path-25);}.cls-55{fill:url(#Sfumatura_senza_nome_112-25);}.cls-56{clip-path:url(#clip-path-26);}.cls-57{fill:url(#Sfumatura_senza_nome_112-26);}.cls-58{clip-path:url(#clip-path-27);}.cls-59{fill:url(#Sfumatura_senza_nome_112-27);}.cls-60{clip-path:url(#clip-path-28);}.cls-61{fill:url(#Sfumatura_senza_nome_112-28);}.cls-62{clip-path:url(#clip-path-29);}.cls-63{fill:url(#Sfumatura_senza_nome_112-29);}.cls-64{clip-path:url(#clip-path-30);}.cls-65{fill:url(#Sfumatura_senza_nome_112-30);}.cls-66{clip-path:url(#clip-path-31);}.cls-67{fill:url(#Sfumatura_senza_nome_112-31);}.cls-68{clip-path:url(#clip-path-32);}.cls-69{fill:url(#Sfumatura_senza_nome_112-32);}.cls-70{clip-path:url(#clip-path-33);}.cls-71{fill:url(#Sfumatura_senza_nome_112-33);}.cls-72{clip-path:url(#clip-path-34);}.cls-73{fill:url(#Sfumatura_senza_nome_112-34);}.cls-74{clip-path:url(#clip-path-35);}.cls-75{fill:url(#Sfumatura_senza_nome_112-35);}.cls-76{clip-path:url(#clip-path-36);}.cls-77{fill:url(#Sfumatura_senza_nome_112-36);}.cls-78{clip-path:url(#clip-path-37);}.cls-79{fill:url(#Sfumatura_senza_nome_112-37);}.cls-80{clip-path:url(#clip-path-38);}.cls-81{fill:url(#Sfumatura_senza_nome_112-38);}.cls-82{clip-path:url(#clip-path-39);}.cls-83{fill:url(#Sfumatura_senza_nome_112-39);}.cls-84{clip-path:url(#clip-path-40);}.cls-85{fill:url(#Sfumatura_senza_nome_112-40);}.cls-86{clip-path:url(#clip-path-41);}.cls-87{fill:url(#Sfumatura_senza_nome_112-41);}.cls-88{clip-path:url(#clip-path-42);}.cls-89{fill:url(#Sfumatura_senza_nome_112-42);}.cls-90{clip-path:url(#clip-path-43);}.cls-91{fill:url(#Sfumatura_senza_nome_112-43);}.cls-92{clip-path:url(#clip-path-44);}.cls-93{fill:url(#Sfumatura_senza_nome_112-44);}.cls-94{clip-path:url(#clip-path-45);}.cls-95{fill:url(#Sfumatura_senza_nome_112-45);}.cls-96{clip-path:url(#clip-path-46);}.cls-97{fill:url(#Sfumatura_senza_nome_112-46);}.cls-98{clip-path:url(#clip-path-47);}.cls-99{fill:url(#Sfumatura_senza_nome_112-47);}.cls-100{clip-path:url(#clip-path-48);}.cls-101{fill:url(#Sfumatura_senza_nome_112-48);}.cls-102{clip-path:url(#clip-path-49);}.cls-103{fill:url(#Sfumatura_senza_nome_112-49);}.cls-104{clip-path:url(#clip-path-50);}.cls-105{fill:url(#Sfumatura_senza_nome_112-50);}.cls-106{clip-path:url(#clip-path-51);}.cls-107{fill:url(#Sfumatura_senza_nome_112-51);}.cls-108{clip-path:url(#clip-path-52);}.cls-109{fill:url(#Sfumatura_senza_nome_112-52);}.cls-110{clip-path:url(#clip-path-53);}.cls-111{fill:url(#Sfumatura_senza_nome_112-53);}.cls-112{clip-path:url(#clip-path-54);}.cls-113{fill:url(#Sfumatura_senza_nome_112-54);}.cls-114{clip-path:url(#clip-path-55);}.cls-115{fill:url(#Sfumatura_senza_nome_112-55);}.cls-116{clip-path:url(#clip-path-56);}.cls-117{fill:url(#Sfumatura_senza_nome_112-56);}.cls-118{clip-path:url(#clip-path-57);}.cls-119{fill:url(#Sfumatura_senza_nome_112-57);}.cls-120{clip-path:url(#clip-path-58);}.cls-121{fill:url(#Sfumatura_senza_nome_112-58);}.cls-122{clip-path:url(#clip-path-59);}.cls-123{fill:url(#Sfumatura_senza_nome_112-59);}.cls-124{clip-path:url(#clip-path-60);}.cls-125{fill:url(#Sfumatura_senza_nome_112-60);}.cls-126{clip-path:url(#clip-path-61);}.cls-127{fill:url(#Sfumatura_senza_nome_112-61);}.cls-128{clip-path:url(#clip-path-62);}.cls-129{fill:url(#Sfumatura_senza_nome_112-62);}.cls-130{clip-path:url(#clip-path-63);}.cls-131{fill:url(#Sfumatura_senza_nome_112-63);}.cls-132{clip-path:url(#clip-path-64);}.cls-133{fill:url(#Sfumatura_senza_nome_112-64);}.cls-134{clip-path:url(#clip-path-65);}.cls-135{fill:url(#Sfumatura_senza_nome_112-65);}.cls-136{clip-path:url(#clip-path-66);}.cls-137{fill:url(#Sfumatura_senza_nome_112-66);}.cls-138{clip-path:url(#clip-path-67);}.cls-139{fill:url(#Sfumatura_senza_nome_112-67);}.cls-140{clip-path:url(#clip-path-68);}.cls-141{fill:url(#Sfumatura_senza_nome_112-68);}.cls-142{clip-path:url(#clip-path-69);}.cls-143{fill:url(#Sfumatura_senza_nome_112-69);}.cls-144{clip-path:url(#clip-path-70);}.cls-145{fill:url(#Sfumatura_senza_nome_112-70);}.cls-146{clip-path:url(#clip-path-71);}.cls-147{fill:url(#Sfumatura_senza_nome_112-71);}.cls-148{clip-path:url(#clip-path-72);}.cls-149{fill:url(#Sfumatura_senza_nome_112-72);}.cls-150{clip-path:url(#clip-path-73);}.cls-151{fill:url(#Sfumatura_senza_nome_112-73);}.cls-152{clip-path:url(#clip-path-74);}.cls-153{fill:url(#Sfumatura_senza_nome_112-74);}.cls-154{clip-path:url(#clip-path-75);}.cls-155{fill:url(#Sfumatura_senza_nome_112-75);}.cls-156{clip-path:url(#clip-path-76);}.cls-157{fill:url(#Sfumatura_senza_nome_112-76);}.cls-158{clip-path:url(#clip-path-77);}.cls-159{fill:url(#Sfumatura_senza_nome_112-77);}.cls-160{clip-path:url(#clip-path-78);}.cls-161{fill:url(#Sfumatura_senza_nome_112-78);}.cls-162{clip-path:url(#clip-path-79);}.cls-163{fill:url(#Sfumatura_senza_nome_112-79);}.cls-164{clip-path:url(#clip-path-80);}.cls-165{fill:url(#Sfumatura_senza_nome_112-80);}.cls-166{clip-path:url(#clip-path-81);}.cls-167{fill:url(#Sfumatura_senza_nome_112-81);}.cls-168{clip-path:url(#clip-path-82);}.cls-169{fill:url(#Sfumatura_senza_nome_112-82);}.cls-170{clip-path:url(#clip-path-83);}.cls-171{fill:url(#Sfumatura_senza_nome_112-83);}.cls-172{clip-path:url(#clip-path-84);}.cls-173{fill:url(#Sfumatura_senza_nome_112-84);}.cls-174{clip-path:url(#clip-path-85);}.cls-175{fill:url(#Sfumatura_senza_nome_112-85);}.cls-176{clip-path:url(#clip-path-86);}.cls-177{fill:url(#Sfumatura_senza_nome_112-86);}.cls-178{clip-path:url(#clip-path-87);}.cls-179{fill:url(#Sfumatura_senza_nome_112-87);}.cls-180{clip-path:url(#clip-path-88);}.cls-181{fill:url(#Sfumatura_senza_nome_112-88);}.cls-182{clip-path:url(#clip-path-89);}.cls-183{fill:url(#Sfumatura_senza_nome_112-89);}.cls-184{clip-path:url(#clip-path-90);}.cls-185{fill:url(#Sfumatura_senza_nome_112-90);}.cls-186{clip-path:url(#clip-path-91);}.cls-187{fill:url(#Sfumatura_senza_nome_112-91);}.cls-188{clip-path:url(#clip-path-92);}.cls-189{fill:url(#Sfumatura_senza_nome_112-92);}.cls-190{clip-path:url(#clip-path-93);}.cls-191{fill:url(#Sfumatura_senza_nome_112-93);}.cls-192{clip-path:url(#clip-path-94);}.cls-193{fill:url(#Sfumatura_senza_nome_112-94);}.cls-194{clip-path:url(#clip-path-95);}.cls-195{fill:url(#Sfumatura_senza_nome_112-95);}.cls-196{clip-path:url(#clip-path-96);}.cls-197{fill:url(#Sfumatura_senza_nome_112-96);}.cls-198{clip-path:url(#clip-path-97);}.cls-199{fill:url(#Sfumatura_senza_nome_112-97);}.cls-200{clip-path:url(#clip-path-98);}.cls-201{fill:url(#Sfumatura_senza_nome_112-98);}.cls-202{clip-path:url(#clip-path-99);}.cls-203{fill:url(#Sfumatura_senza_nome_112-99);}.cls-204{clip-path:url(#clip-path-100);}.cls-205{fill:url(#Sfumatura_senza_nome_112-100);}.cls-206{clip-path:url(#clip-path-101);}.cls-207{fill:url(#Sfumatura_senza_nome_112-101);}.cls-208{clip-path:url(#clip-path-102);}.cls-209{fill:url(#Sfumatura_senza_nome_112-102);}.cls-210{clip-path:url(#clip-path-103);}.cls-211{fill:url(#Sfumatura_senza_nome_112-103);}.cls-212{clip-path:url(#clip-path-104);}.cls-213{fill:url(#Sfumatura_senza_nome_112-104);}.cls-214{clip-path:url(#clip-path-105);}.cls-215{fill:url(#Sfumatura_senza_nome_112-105);}.cls-216{clip-path:url(#clip-path-106);}.cls-217{fill:url(#Sfumatura_senza_nome_112-106);}.cls-218{clip-path:url(#clip-path-107);}.cls-219{fill:url(#Sfumatura_senza_nome_112-107);}.cls-220{clip-path:url(#clip-path-108);}.cls-221{fill:url(#Sfumatura_senza_nome_112-108);}.cls-222{clip-path:url(#clip-path-109);}.cls-223{fill:url(#Sfumatura_senza_nome_112-109);}.cls-224{clip-path:url(#clip-path-110);}.cls-225{fill:url(#Sfumatura_senza_nome_112-110);}.cls-226{clip-path:url(#clip-path-111);}.cls-227{fill:url(#Sfumatura_senza_nome_112-111);}</style><clipPath id="clip-path" transform="translate(0 14)"><path class="cls-1" d="M164.76,214.24a1.54,1.54,0,0,1-.09-.52,4.13,4.13,0,0,0,0-1.11c-.14-.53.07-.76.59-1v.56c0,.54,0,1.07,0,1.61a1.15,1.15,0,0,1-.09.51H165c-.07,0-.19,0-.2,0m.58-8.75.14-.06c.43.49.88,1,1.29,1.52.07.08,0,.33-.06.44-.26.41-.54.76-.84,1.23-.18-1.05-.35-2.07-.53-3.11m-.44-23.1c-.33-.56-.58-1.16-.91-1.85.53-.11,1.06-.19,1.6-.25s.48.33.4.69-.19.82-.3,1.22a4.19,4.19,0,0,1-.2.49c-.21-.1-.5-.14-.59-.3m25.4-2.7a25.62,25.62,0,0,1,.59-2.87,4.07,4.07,0,0,0,.07.76,12.54,12.54,0,0,0,.26,1.59c.29.87.23,1.18-.61,2a4.77,4.77,0,0,1-.32-1.44m-1.36-7c.45-1.27.91-2.54,1.37-3.81h.28c.06.2.19.44.13.58-.29.71-.65,1.39-1,2.07-.2.41-.39.82-.58,1.23l-.22-.08m-30.56-7.37c.27,1,.84,1.8.63,2.8a1.3,1.3,0,0,0,0,.62c.13.76.27,1.52.42,2.29l-.2,0a8.61,8.61,0,0,1-.87-5.72m33.29,5.83c.11-.76.23-1.52.4-2.24a4.91,4.91,0,0,0,.23-2.12,5.15,5.15,0,0,1,.42-1.93h.18v2.29l.76.11-.38,1.4-.26-.07v-.8c-.47,1.24-.2,2.7-1.29,3.86a2,2,0,0,1-.08-.55M158.1,152.57l.24-.1.6,1.57-.25.08-.59-1.52m6.53,7.07a22.46,22.46,0,0,1-.76-2.41c-.36-1.2-.68-2.42-1.09-3.59-.16-.41-.61-.71-.87-1.1a3.52,3.52,0,0,1-.3-.88l.28-.16a2.71,2.71,0,0,1,.57.6,15,15,0,0,0,2.44,3.61c1.33,1.53,1.25,3.36,1,5.2l-.3.13a8.05,8.05,0,0,1-1-1.4m1.67-9.31a8.78,8.78,0,0,1-.09-1h.15a8.41,8.41,0,0,1,.36.95,1.58,1.58,0,0,1-.12.39c-.11-.1-.28-.18-.3-.29m27.27,2c.43-1.14.92-2.25,1.4-3.4a.94.94,0,0,1,0,1.33l-.07.06a1.36,1.36,0,0,0-.33,1.6,1.06,1.06,0,0,1,0,.61c-.21.88-.41,1.75-.66,2.61a5.57,5.57,0,0,1-.55,1l-.28-.13.39-1.18-.66.16c.28-1,.47-1.86.76-2.68M165,154.61a10.11,10.11,0,0,1-.9-1.91c-.48-1.52-.87-3-1.29-4.57a.85.85,0,0,1,.1-.66,12.93,12.93,0,0,0,2.29,5.33l.33-.07v-1.35l.12,0a7.11,7.11,0,0,1,.25,1.13,16.19,16.19,0,0,1,0,2c0,.17-.21.49-.31.49a.71.71,0,0,1-.56-.32m-.7-6.18c0-.26,0-.53-.07-.89.51-.19.51-.19.14,1.68a2.69,2.69,0,0,0-.07-.76m.14-2.58.29-.29c.22.14.61.25.65.43.22,1,.35,2,.52,3l-.38.09c-.35-1.11-.72-2.21-1.08-3.31m-1-.91.32-.07.32,1.9-.3,0-.36-1.9m-3.51,1.9c-.16-.41-.16-.88-.32-1.29s-.08-.66.47-.84c.21,1.34.84,2.5,1,3.81l-.37.13c-.26-.59-.55-1.17-.76-1.78m31.48-3.47.76-3.1c.48.76.3,1.72-.54,3.13h-.22m-33.86-4.57c.91.29,1.3,1.12.9,1.77-.33-.65-.61-1.21-.9-1.77m2.95-.47c.66,2.95,2.2,5.62,2.59,8.75-1.32-1.47-2.95-6.49-2.59-8.75m2.52-1.61s.1,0,.11.06a7.19,7.19,0,0,0,.21,1.3c.13.36.5.63.61,1,.3,1.06.52,2.15.76,3.22-1.42-.76-2.24-3.81-1.72-5.58M153.89,140c-.29-.95-.55-1.9-.81-2.86a1.44,1.44,0,0,1,.09-.51c.18,0,.39,0,.52.13a3.07,3.07,0,0,1,.57,2.68l-.38-.56c.13.53.21.92.3,1.3.88-.52.83-.51,1.23.4s.92,1.8,1.38,2.7c.33.67.67,1.35,1,2a4.16,4.16,0,0,0,.35.7c1.12,1.44,1.26,3.16,1.47,4.88a7.3,7.3,0,0,0,.65,1.76c.22.53.54,1,.72,1.59.52,1.52,1,3.1,1.47,4.64l.19-.05-.91-3.88.26-.1a7,7,0,0,1,.36.9,35.17,35.17,0,0,1,1.07,4,39.94,39.94,0,0,1,.22,4.51,4.41,4.41,0,0,1-.21,1.07h-.33a5.43,5.43,0,0,1-.79-1.6,15.12,15.12,0,0,0-1.35-4.09,19,19,0,0,1-1-4.57,28.38,28.38,0,0,0-1-3.74,3.38,3.38,0,0,0-.22-.52c-.33-.76-.65-1.53-1-2.23-.17-.36-.39-.68.09-1a.51.51,0,0,0,.12-.5,18.27,18.27,0,0,0-1-2.15c-.27,2.35.9,4.45,1,6.76a2.77,2.77,0,0,1-.22-.37l-2.24-7a1.16,1.16,0,0,1,.15-1.25c.51-.62.06-2.07-.8-2.62l-.27.81c-.2-.51-.38-.91-.5-1.31m-.62-6.68a4.45,4.45,0,0,1,1.76,3.26c-.57-1.06-1.13-2.12-1.76-3.26M190,131.68l.23.08c-.2.56-.37,1.15-.61,1.7a1.32,1.32,0,0,0-.18,1.09,1.22,1.22,0,0,1-.69,1.4c.58-1.37-.1-3.15,1.25-4.27m-12.31-1.39h.25c.41.72.37,1.15-.25,1.58v-1.6m17-1c-.43,2.44-.89,4.93-1.36,7.52.5.64-.14,1.41-.17,2.18H193l.25-1.7-.17,0-.41,1.12-.34-.6-.19.13c-.18,1-.31,2-.57,2.9-.17.6-.08,1.26-.76,1.79-.43.31-.32,1.36-.48,2.07s-.37,1.36-.59,2.16a3.55,3.55,0,0,1-.45-3.73s0-.09.09-.11.55-.18.58-.32c.19-.8.31-1.62.43-2.43,0-.12-.11-.27-.08-.39.25-.95.52-1.9.77-2.86a11.37,11.37,0,0,1,.44-1.81,9.58,9.58,0,0,1,1-1.53l.13.39h.22l.39-1.77-.23-.06-.35.72-.19-.06c.27-1,.54-2.08.84-3.11,0-.11.22-.2.36-.24.34-.11.69-.18,1.05-.26m-2.28-1.81c0-.16.12-.41.2-.42.88-.08.9-.83,1.14-1.41a2.64,2.64,0,0,1,.32-.41c.27,1.35-1,4.52-2.08,4.84.13-.88.26-1.74.42-2.6m-6.18-7.5a2.76,2.76,0,0,1-.49,2.73c.65,1.28-.56,2.17-.58,3.29h-.23c-.19-.76-.39-1.6-.57-2.39l.71.25c0-.23.1-.47.12-.7.05-.77.09-1.53.14-2.29h.27c0,.45,0,.88-.07,1.33.59-.63.46-1.47.7-2.29m13.31-.11.65-2.08.25.1-.69,2-.21-.06M158.77,116c.28.85.57,1.7.86,2.54l-.21.1a2.63,2.63,0,0,1-.65-2.64m7.66-.85c.33,1.38.65,2.75,1,4.25-.6-.43-1-2.15-1-4.25M165,115l.31-.06.42,2.48h-.15c-.19-.81-.38-1.63-.58-2.44m2.36-.06.27-.05.48,2.94-.27.05c-.52-.92-.16-2-.48-2.94M197,121a28.75,28.75,0,0,1,2.43-6.76l.2.08-2.37,6.78L197,121m3.05-6.85a3.45,3.45,0,0,1-.72,2.77c.22-.87.45-1.73.72-2.77m-56.67-.06c.9.57,3.58,7.76,3.45,9.24a28.29,28.29,0,0,1-3.45-9.24m55.24,13.66a20.27,20.27,0,0,1,1.06-5.06c.89-2.79,1.66-5.63,2.48-8.45.05-.14.11-.29.16-.44.16,1.26-.76,2.41-.18,3.89.54-1.17,1-2.18,1.52-3.24.08.15.15.21.13.27a27.81,27.81,0,0,1-.76,3.37c-.68,2.19-1.52,4.34-2.18,6.52a4.83,4.83,0,0,0,.05,1.37,5.91,5.91,0,0,1-.11,1.26,6.78,6.78,0,0,1-.53,1.38c-.3.59-.65,1.14-1.08,1.88a5.34,5.34,0,0,1-.56-2.75m-12.77-9.91a11.35,11.35,0,0,1,.23-2.1c.07-.34-.11-.86.53-1,.1,0,.15-.5.19-.76.17-1.28.33-2.58.5-3.87h.37l-1.28,9.31h-.32a10.19,10.19,0,0,1-.22-1.66m.2-9.49c.72,1.63.67,1.88-.56,3.16-.09-.39-.16-.76-.26-1.13l.88-.32-1.11-.58a5.06,5.06,0,0,0,0,3.24c0,.14.43.26.66.25a.52.52,0,0,1,.62.42.49.49,0,0,1,0,.24c-.26.85-.64,1.66-1,2.49a.76.76,0,0,0-.23.05c0-.43-.08-.85-.14-1.43a3.62,3.62,0,0,0-.23,3.6l.59.07c-.25,1.27-.5,2.51-.76,3.75h-.12c.06-.8.11-1.62.17-2.44a.84.84,0,0,1-.23-.09c-.1.22-.28.42-.29.64v2.36c0,.56-.09,1.13-.14,1.79-.59.11-.62.7-.62,1.31v2.54a1,1,0,0,1-.32.67,26.91,26.91,0,0,1,.39-5.73h-.19c-.09.4-.18.77-.28,1.24-.12-.12-.18-.14-.18-.17.11-1.43.19-2.86.36-4.3,0-.32.5-.61.53-.94a4.21,4.21,0,0,0-.2-2.53c-.12-.22,0-.58.06-.88,0-.12.14-.26.11-.36-.13-.76-.19-1.41.5-1.92.11-.08.13-.3.13-.46,0-.85,0-1.71.08-2.54a10.86,10.86,0,0,1,.29-1.4h.2c.08.14.18.28.3.46l1-1m21.33,4a4.79,4.79,0,0,1,1.33-2.75,4.83,4.83,0,0,0,.76-1.32l.35.18c-.48,1.41-.9,2.82-1.44,4.19-.15.4-.63.68-1,1a5.65,5.65,0,0,1,0-1.3m-32-7.94c0,.62,0,1.24-.06,1.85h-.26c0-.62,0-1.24,0-1.86h.28m7.75,5c.07-1.77.12-3.55.25-5.33a3.82,3.82,0,0,1,.51-1.17l.17.06-.19,3.89a1.87,1.87,0,0,1,.15.66c0,.86-.14,1.72-.22,2.59h-.1c-.41,0-.59-.28-.57-.71m-2.83.76c-.05-2.53-.1-5.06-.15-7.62h.19c.15.64.58,1.38.39,1.91a6.09,6.09,0,0,0,.09,2.79,16.05,16.05,0,0,1-.27,2.93h-.4m-.46-8.69c-.06.94-.14,1.88-.21,2.83h-.23c.07-.94.13-1.87.2-2.81h.24m-2.69,2.62,0-3.49h.32c0,1.4.06,2.79.1,4.24l-.58-.2c-.06,1-.1,2-.14,3h-.19c0-.62-.09-1.25-.13-2-.1-.11-1-.05-.18-.62.1-.08-.06-.53-.12-1s0-1.28.06-2h.21l.48,2h.22m-41-3.73c1.17.86,2,3.11,1.52,4.09l-1.52-4.09m26.78-.44.27,0,.19,1.75h-.24c-.08-.58-.14-1.16-.22-1.74m-2.54,2.59c-.6-3.35-1.22-6.7-1.73-10.07a9.46,9.46,0,0,1,.14-3c.3,1.85.53,3.72.93,5.55s1,3.58,1.46,5.34l-.07,0a8.42,8.42,0,0,0,0,1.23c.08.54.26,1.06.35,1.59a3.55,3.55,0,0,1-.09.92,2.2,2.2,0,0,1-1-1.62M212.08,84A2.19,2.19,0,0,1,212,82c.31-.7.59-1.42.88-2.13,0-.12.1-.24.22-.55.32,1.63-.91,8.49-1.7,9.85a8.73,8.73,0,0,1,.68-5.25m-59.94-15,.17,0a1.48,1.48,0,0,0,.23.53,1.63,1.63,0,0,0,.59.2c.21,2,.43,4,.63,6h0q-.79-3.31-1.57-6.63m-5.89-1.53c.64,1,1.3,2,1.91,3a1.35,1.35,0,0,1,.14.59c.1,1.28.14,2.56.29,3.81a3.14,3.14,0,0,0,.54,1.29c.45.69.45,1.17-.26,2a84.19,84.19,0,0,1-2.62-10.67m2.65-.91L149,64l.22,0-.07,2.43h-.29m7.22,1.31a22.72,22.72,0,0,0-.68-2.41c-.3-1.11-.9-2.29-.24-3.54a6.46,6.46,0,0,0,.24-.86,5.92,5.92,0,0,1,.76,2.94,8,8,0,0,0,.28,2.29c.12.76.31,1.48.44,2.22a4.33,4.33,0,0,1,0,.72l-.3.07a10.66,10.66,0,0,1-.47-1.45m-.32-8.56h.31l.12,1.33-.32.05-.11-1.36m-10.15,1.38a2.32,2.32,0,0,1-.11-1c0-.18.19-.36.3-.54.24.15.65.27.69.45.23,1.36.39,2.72.57,4.08H147c-.45-1-.92-2-1.35-3.05m2.07-2.09h.42c.05.77.09,1.53.13,2.29H148c-.06-.76-.14-1.52-.21-2.29M142.49,31.2c.5,2.59,1,5.18,1.52,7.77.85,4,1.74,8.05,2.58,12.08.29,1.41.4,2.86.76,4.25a7.94,7.94,0,0,1,.07,3.11v.49l-.36-.16a17,17,0,0,0-.76-1.94,27.92,27.92,0,0,1-3-8.25c-.23-1.13-.52-2.28-.81-3.38a4.21,4.21,0,0,0-.31-.73l-.22.05a5.19,5.19,0,0,0,0,.68c.1.32.26.62.34.94.53,2.21,1.2,4.39,1.52,6.64.41,2.75.42,5.56.83,8.32.49,3.44,1.15,6.86,1.86,10.25A35.51,35.51,0,0,1,147.71,77a2.42,2.42,0,0,0,1.09,2.39.7.7,0,0,1,.25.42c.62,2.09,1.31,4.17,1.82,6.28.64,2.57.94,5.22,2,7.67.08.19.19.37.26.56s.18.53.25.76l-.17.08c.32.67.67,1.32.94,2a24.61,24.61,0,0,1,1.34,3.81c.43,2,.58,4.08,1,6.1a32,32,0,0,1,.58,6.4,6.44,6.44,0,0,0,.16,1.39c.11.47.31.92.42,1.4.22.89.35,1.8.6,2.68s.81,2,1,3a53.31,53.31,0,0,0,2.29,8.7,22.17,22.17,0,0,1,.84,3.42,1.13,1.13,0,0,1-.41,1.26c-1.12-.76-1.09-1.94-1.24-3l-.26.06c.14,1,.27,2.07.41,3.27-.76-1-6.58-19.31-6.47-20.08.19.35.38.7.56,1l.29-.1c-1.52-6-3.28-12-3.86-18.28a4.83,4.83,0,0,0-.21-.93c0-.06-.13-.09-.32-.2.25,1.79.47,3.47.72,5.14s.52,3.29.76,4.92l-.25.06-.65-1.16-.16.07a13.67,13.67,0,0,1,.47,1.36c.34,1.25.64,2.51.94,3.76a1.6,1.6,0,0,1,0,.92,3.56,3.56,0,0,0,.44,1.89c.09.27.47.45.55.76.69,2.26,1.35,4.52,2,6.8s1.17,4.39,1.81,6.56c.85,2.91,1.76,5.8,2.62,8.7.08.25.1.52.16.77l-.23.06-1.24-3.27-.15.06c.35,1.52.71,3,1.06,4.5a.9.9,0,0,1-.35-.42c-.37-.88-.76-1.75-1.08-2.62-1.45-3.63-2.91-7.26-4.34-10.88q-.87-2.17-1.67-4.37c-.62-1.68-1.18-3.38-1.81-5.07a6.41,6.41,0,0,0-.57-1l-.18.09c.21.58.42,1.17.64,1.75.9,2.4,1.82,4.8,2.72,7.22.28.76.5,1.52.76,2.33l-.18,0c-.48-1.12-1-2.28-1.52-3.55a3.11,3.11,0,0,0,0,.61c.7,2,.33,4.2,1.23,6.18.38.82.25.91,1.19.7.15.64.3,1.28.46,1.92.11.45.36.57.76.31-.3-1-.61-2.05-.91-3.09l.33-.1c.85,2.54,1.69,5.11,2.55,7.69-.67.28-.95,0-1-.58a3.17,3.17,0,0,0-.06-.76c-.19-.76-.4-1.52-.6-2.29l-.16.06c.14,1.13.28,2.28.42,3.4l-.22.06c-.15-.21-.31-.41-.45-.61-.76-1.18-1.52-2.36-2.28-3.52-.11-.16-.41-.19-.62-.29a1.57,1.57,0,0,0,0,.61c.24.59.54,1.15.8,1.73q.8,1.75,1.53,3.51l-.19.11a1.85,1.85,0,0,1-.28-.28c-.76-1.52-1.59-3-2.29-4.62-.5-1.14-.8-2.37-1.24-3.54-.89-2.37-1.82-4.72-2.71-7.08-.31-.85-.59-1.7-.84-2.56a2.88,2.88,0,0,1-.05-1,5.24,5.24,0,0,0,0-1.31c-.71-2.6-1.47-5.19-2.21-7.77,0-.09-.15-.16-.38-.38a6,6,0,0,0,.09.84c.27,1,.56,2.06.84,3s.66,1.71.13,2.6a.38.38,0,0,0,0,.21l1.6,4.85c.46,1.37.9,2.72,1.35,4.09l-.1.16q-3.65-8.64-7.28-17.19l-.25.11c.7,1.73,1.4,3.48,2.1,5.23l-.28.1c-.09-.19-.2-.4-.28-.6-1.12-2.58-2.2-5.18-3.34-7.74-1.18-2.77-2.32-5.48-3.73-8.1-2.1-3.88-3.17-8.16-4.83-12.19-.59-1.43-1-2.91-1.53-4.35-1.19-3.17-2.42-6.31-3.6-9.48-.63-1.67-1.19-3.37-1.78-5a2.3,2.3,0,0,0-.23-.4l-.17.08c.34,1,.68,2.06,1,3.05q1.68,4.83,3.38,9.65c.76,2.22,1.56,4.45,2.41,6.66.6,1.52,1.4,3,1.94,4.62,1.18,3.44,2.38,6.9,3.34,10.41a93.62,93.62,0,0,0,4.51,13.22,27.11,27.11,0,0,0,2.29,3.7,14.6,14.6,0,0,1,1.38,1.92,36.13,36.13,0,0,1,1.08,3.54c.43-.45.48,0,.56.24.2.57.32,1.18.52,1.76.94,2.85,1.91,5.69,2.84,8.54a12.72,12.72,0,0,1,.33,1.72l-.21.05-.71-1.85-.17.08a1.09,1.09,0,0,0,.11.39,23.12,23.12,0,0,1,1.13,3.11c.3,1.58,1.32,2.81,1.86,4.25.35.92.77,1.82,1.17,2.73.22.51.46,1,.7,1.52h.11v-.66l.43.55.21-.11c-.37-1-.76-2.08-1.12-3.1-.25-.66-.64-1.25-.88-1.91-.45-1.26-.82-2.56-1.26-3.81s-.76-2.22-1.18-3.33c-.17-.46-.32-.93-.52-1.37s-.53-1.07-.76-1.61l.22-.25.22.54.26-.25-2.69-6.1.2-.09.15.23c1.32,3,2.78,5.85,3.91,8.87,1.64,4.36,3,8.82,4.57,13.21a21,21,0,0,0,1.34,2.63,4.47,4.47,0,0,1,.35.69c.36,1.2.76,2.4,1,3.63s.43,2.64.61,4c.09.76.13,1.57.19,2.37a47.93,47.93,0,0,1-2.43-5.12,16.62,16.62,0,0,1-1.63-7.13,1.34,1.34,0,0,0-.16-.43l-.2,0a4.91,4.91,0,0,1-.07.91l-.56-1.46a4,4,0,0,0,0,.49c.13.71.31,1.41.39,2.13.2,1.59.34,3.19.55,4.78,0,.35.14.86.37.95.8.32.83,1,1.06,1.67s.54,1.36.89,2.23l.36-.88a4,4,0,0,1,.25.56c.62,2.15,1.24,4.3,1.83,6.44a5.72,5.72,0,0,1,0,1.17c-.71-1.17-.76-2.54-1.52-3.63l-.17.07.43,1.26-.13.07c-.34-.57-.67-1.15-1-1.72-.12.59.51,1.1-.12,1.76-.69-1.48-1.33-2.89-2-4.39l.47.31.17-.1c-.4-.9-.76-1.79-1.17-2.69l-.23.08c.22.63.43,1.25.65,1.87a17.63,17.63,0,0,1-1.66-2.6c-.9-1.8-1.76-3.61-2.66-5.4a3.33,3.33,0,0,0-.43-.56l-.22.15A94.26,94.26,0,0,1,155.32,163c-.82-1.52-1.63-3-2.45-4.52l-.21.11c.91,1.87,1.83,3.74,2.74,5.6h.24v-.46c.94,2.15,1.79,4.18,2.56,6.23.49,1.29.86,2.63,1.27,3.95a1.85,1.85,0,0,1-.12.46,1.86,1.86,0,0,0-.19.46c0,1-.06,1.92,0,2.88,0,1.48.1,3,.16,4.44l-.11,0c-.3-.69-.62-1.38-.94-2.09l-.12,0c0,.27-.08.54-.13.85l-.56-.37a1,1,0,0,0,.17,1.31,2.38,2.38,0,0,1,.43,1,4.67,4.67,0,0,1,.15,1.05,16.81,16.81,0,0,1-.14,2.13c0,.27-.27.51-.5.9l-.8-1.61-.19.05a2.35,2.35,0,0,0,0,.53c.87,2.78.84,5.69,1.28,8.53,0,.23,0,.46-.08.69a6.93,6.93,0,0,0,.06,1.82c.1.38.53.92.85.93.57,0,.57-.61.55-1a15.88,15.88,0,0,0-.31-1.83,2.68,2.68,0,0,0,2.44-2.29c-.06-1.35.39-2.74-.28-4a.49.49,0,0,1,0-.41,3.58,3.58,0,0,0-.43-3.45h0c.52,0,1.1.21,1.39,0,.53-.39,1.2-.8,1.05-1.72a8.12,8.12,0,0,1,.15-1.71l.23,0c.31,1.06.63,2.12,1,3.3.12-.35.18-.53.25-.76H165a16,16,0,0,1,.72,2.57c.14,1.2,0,2.44.11,3.65.31,3.64-.55,7.2-.68,10.82a2,2,0,0,1-1,1.63c-.23-1-.44-1.87-.65-2.74l-.2,0c.14.86.27,1.72.43,2.57a4,4,0,0,0,1.6,2.07c-.58.24-.93.52-.64,1.19a2.12,2.12,0,0,1,.09,1c0,.81-.43,1.12-1.23,1-.1.45-.23.91-.37,1.35a6.65,6.65,0,0,0,.26,4.57c.41,1.34,1,2.63,1.35,4a8.85,8.85,0,0,1,.67,3.37c-.14,1.87,0,3.76,0,5.65V227a6.51,6.51,0,0,0,0,1.87,28.35,28.35,0,0,0,1.34,3c.54,1.15,1.12,2.29.59,3.62a5.88,5.88,0,0,0-.2,1.82,2.3,2.3,0,0,0,.76,2,1.41,1.41,0,0,0,1.08.28c1-.33,1.23-.69,1.15-1.76a9.43,9.43,0,0,0-.42-2,14,14,0,0,0-.55-1.4l.17-.14a23.23,23.23,0,0,1,2.17,1.64c.65.6.94.58,1.52.09,1-.84,2-1.73,3.49-1.66a1.13,1.13,0,0,0,1.11-1,4.78,4.78,0,0,1-.84.08c-.37,0-.55-.21-.31-.55.38-.56.76-1.09,1.22-1.66l.21.27.76.72a11.35,11.35,0,0,0,.64-1c.07-.14,0-.34.07-.49a2.79,2.79,0,0,1,.44-.9c.44-.42.95-.76,1.43-1.15l.61-.51c0-.07,0-.13-.07-.2-.69-.07-1.36-.32-2.06.16-.5.33-1,0-.92-.52a12,12,0,0,1,1-2.88,13.77,13.77,0,0,0,1.66-4,1.22,1.22,0,0,1,.37-.76,1.45,1.45,0,0,0,.57-1.56,1.2,1.2,0,0,1,.16-.83,2.37,2.37,0,0,0,.11-2.81,2.58,2.58,0,0,1,.34-3.15,2,2,0,0,0,.16.62,5.78,5.78,0,0,0,.63.76,7.17,7.17,0,0,0,.67-.68c.11-.14.11-.4.24-.5a2.61,2.61,0,0,0,.76-2.57,2.67,2.67,0,0,1,.55-1.46,2.39,2.39,0,0,1,.92-.64,1,1,0,0,1,.6-.07,1.44,1.44,0,0,0,1.52,1.15c.26,0,.5.29.77.48a2.28,2.28,0,0,0,.29-2.62l-.57.34-.27-.67-.76-.05c.05-.84.08-1.63.11-2.44l-1.48,1.2c-.43-.36-.61-.76-.17-1.15a3.81,3.81,0,0,0,1.2-3.33c0-.48.16-1,.19-1.45.07-1.25.48-2.52-.08-3.77a1.57,1.57,0,0,1,0-.53h.23a5.48,5.48,0,0,0,.22.72c.26.57.57,1.13,1.26,1.24a1.39,1.39,0,0,0,1.41-.76,17.27,17.27,0,0,0,1.21-2.24c.82-1.85.4-3.81.25-5.67-.1-1.34-.58-2.69.35-3.93a2.31,2.31,0,0,0,.23-.67c-.76-.09-.9-.62-1-1.21s-.19-1.07-.26-1.61a.69.69,0,0,1,.13-.5c1.7-1.67,1.15-3.72,1-5.7a6.74,6.74,0,0,1,0-1.42,3.13,3.13,0,0,1,.35-.94c.22-.45.1-.68-.36-.87-.19-.08-.45-.37-.44-.55a4.07,4.07,0,0,1,.29-1.14,18.3,18.3,0,0,0,.81-2.29,8.18,8.18,0,0,0,0-1.85h-.23c-.18.43.15,1.12-.64,1.33a9.46,9.46,0,0,1-.05-2.55c.52-2,1.22-3.94,1.86-5.92.07-.21.19-.41.28-.62l.15,0c-.09.54-.19,1.08-.29,1.63l.29.06c.13-.57.24-1.15.4-1.72a1.21,1.21,0,0,1,.38-.54c.23-.19.64-.27.76-.49.34-.85.58-1.75.85-2.62l-.29-.1L196.31,156h-.09c0-.26.06-.53.08-.83-.43.17-.43,1-1.07.6a18.51,18.51,0,0,1,1.83-3.87l.22,0c.11.43.2.85.31,1.27h.18c.3-.76.62-1.52.91-2.28.69-1.88,1.31-3.81,2.08-5.65.35-.88,1-1.64,1.45-2.5,1.57-3,2.42-6.37,4.4-9.21v-.36l-1,1.48-.19-.08c.14-.47.24-.94.4-1.39.41-1.11.86-2.21,1.25-3.32.7-2,1.36-4,2.08-6,.52-1.44,1.14-2.85,1.68-4.29q1.6-4.32,3.16-8.66c.09-.27.14-.55.21-.81a31.1,31.1,0,0,0-1.86,3.91c-.94,2.43-1.78,4.9-2.74,7.32-.62,1.53-1.36,3-2.06,4.53a3.19,3.19,0,0,1-.46.71,1.16,1.16,0,0,1-.47.2,1.45,1.45,0,0,1-.19-.54,1.42,1.42,0,0,1,.16-.53c.45-1.22.92-2.44,1.37-3.67.06-.19.1-.38.16-.58l-.15,0-1.73,3.81-.2-.07a9.71,9.71,0,0,1,.63-3.88c.52-1.24,1.05-2.48,1.49-3.76,1-2.81,2.11-5.58,2.28-8.62a6.87,6.87,0,0,1,.49-1.7c.4-1.11.82-2.21,1.23-3.32l3.23-8.61c1,.19,2.51-3.05,2.16-4.58-.43.77-.76,1.46-1.15,2.13l-.18-.08c.35-1,.7-2,1-3.05l-.24-.09c-.15.35-.32.69-.46,1-.7,1.9-1.38,3.81-2.09,5.74-.2.54-.51,1.06-.76,1.6a1.28,1.28,0,0,0-.24-.11l4.07-11.61-.21-.1a2.48,2.48,0,0,0-.27.47c-.77,2.19-1.53,4.38-2.33,6.56a37.44,37.44,0,0,1-2.14,5.4c-1,1.81-1.29,4-2.75,5.54-.34.37-.31,1.07-.46,1.63H210a15.2,15.2,0,0,0-3.44,6.78l-.34-.13a32.16,32.16,0,0,1,1.72-5.27,40.64,40.64,0,0,0,3.88-11.38,34.12,34.12,0,0,1,.92-3.33c.24-.76.53-1.48.77-2.21l-.24-.09c-.41,1-.81,2-1.22,2.92h-.22a6.91,6.91,0,0,1,.07-1.2,37.76,37.76,0,0,1,1.8-6.93c1.69-5.08,3.32-10.2,5-15.3a1.43,1.43,0,0,0,.07-.46l-.19,0c-.2.64-.4,1.29-.62,1.93-.8,2.37-1.58,4.75-2.42,7.11A3.62,3.62,0,0,1,214.08,80a6,6,0,0,0-.16-1.47,3.88,3.88,0,0,1,0-2.36,41.28,41.28,0,0,0,1.32-5.26,65.33,65.33,0,0,1,1.62-7.34c.05-.23.06-.45.09-.68l-.24-.06c-.12.39-.25.77-.35,1.17-1,4.08-1.94,8.19-3,12.25-.73,2.67-1.7,5.27-2.56,7.89-.24.72-.48,1.44-.77,2.13-.64,1.45-1.32,2.87-2,4.3-.1.22-.23.41-.34.61l-.16-.08.69-5.42A18.17,18.17,0,0,0,206.87,88a21.18,21.18,0,0,0-1.71,6.09c-.07.6,0,1.08.81,1.15-4.17,9.14-7.16,18.68-10.67,28l.53-4h-.19c-.39,1.25-.77,2.5-1.15,3.75h-.15c.18-1,.37-2,.54-3l-.18,0c-.51,2-1,3.94-1.53,5.92a1.18,1.18,0,0,0-.27-.06l1.26-5.58-.2,0-.31.6c.29-2.73.68-5.41,1.12-8.08.07-.35.49-.65.52-1a17.1,17.1,0,0,0-.1-2.15,12.81,12.81,0,0,0-.7,2.51c-.86,4.57-1.65,9.14-2.58,13.71a14.86,14.86,0,0,1-1.32,3.26,2.09,2.09,0,0,1-.76.8c-.34.23-.66.18-.63-.35,0-.33.2-.82,0-.95-.56-.51-.4-1.14-.34-1.7.47-3.93.59-7.9,1.32-11.82.76-4.22,1.26-8.51,1.83-12.77a2.56,2.56,0,0,0-.2-.91h-.26q-1.11,8.25-2.22,16.53h-.24v-1.39h-.22c0,.57-.56,1.16.17,1.71a.39.39,0,0,1,.08.31c-.11,1.27-.17,2.55-.38,3.81-.52,3-1.12,6-1.69,9a1.8,1.8,0,0,1-.16.38l-.26,0c.07-.83.17-1.66.22-2.49.07-1.32.12-2.64.14-4s-.11-2.84,0-4.24c.28-3,.65-6.14,1-9.21.09-.76.32-1.44.52-2.35.27.52.44.85.58,1.15.19-4.11.31-8.23.6-12.34s.77-8.16,1.2-12.24h-.22c0,.22-.08.45-.1.67-.37,3.22-.67,6.44-1.11,9.65s-1,6.21-1.53,9.31a16.44,16.44,0,0,1-.61,2.29c0,.15-.29.23-.44.36a2.22,2.22,0,0,1-.2-.48v-.92s-.05-.1-.09-.19l-.33.29c-.15-.49-.47-.61-.76-.36a2.86,2.86,0,0,1-.91-3v-.14c0-2,.1-3.91.14-5.88V96.7h-.26c-.1,1.9-.2,3.81-.31,5.75a1.77,1.77,0,0,1-1.11-2.14,8.7,8.7,0,0,0,.14-1.34V96.79H183a22.51,22.51,0,0,1-1,4.93,30.52,30.52,0,0,1-.67-4c-.11-1.31-.08-2.63-.11-4l-.09-3.93h-.32q.09,6.3.15,12.6l-.3.09a4.11,4.11,0,0,1-.37-.76,3.22,3.22,0,0,1,0-.76c0-2.17-.07-4.34-.13-6.52a6.08,6.08,0,0,0-.36-1l-.26.06c0,.32.1.63.11,1a8.42,8.42,0,0,1-.09,1c-1.42-4-.2-8-.76-11.84-.4,2.87-.14,5.75-.35,8.63l-.45-.07c0,2.29,0,4.53,0,6.78h-.23c-.05-.3,0-.76-.16-.87-.77-.42-.67-1.2-.7-1.81-.08-1.41,0-2.83,0-4.25,0-1.16.22-2.33.22-3.49s-.17-2.29-.19-3.46V77.9a3.57,3.57,0,0,1,.26-.86,5.57,5.57,0,0,0,.38-1.66c-.05-1.14-.32-2.29-.41-3.41-.11-1.29-.13-2.59-.19-3.88a.43.43,0,0,1-.19-.07,4.67,4.67,0,0,0-.09,1.18,14.06,14.06,0,0,1-.05,3.11c0,1.79,0,3.57,0,5.34,0,3.94-.15,7.89-.18,11.83a27.1,27.1,0,0,1-.68,7.12,7.6,7.6,0,0,1-.43,1l-.23-.06-.41-6.4h-.17a4.59,4.59,0,0,0-.28,1c0,.59,0,1.17,0,1.76a9.85,9.85,0,0,0,0,1.09c.14,1.21.36,2.42.41,3.63.09,2.28.08,4.57.1,6.85a1.47,1.47,0,0,1-.15.4l-.53-.9c-.08.56-.13.93-.19,1.3h-.13c-.13-.53-.25-1.06-.4-1.7-.46.46-.46.76-.18,1.2a4.62,4.62,0,0,1,.68,1.71,18.74,18.74,0,0,1,0,2.12c.05,1.44.11,2.88.22,4.31,0,.45,0,1.07.83,1.06a3,3,0,0,0-.44,1.08c0,1.32.12,2.64.22,3.95a7.55,7.55,0,0,1,.22,1.17,4,4,0,0,1-.39,1c.16.25.4.45.4.65,0,2.58-.06,5.15-.11,7.73a6.23,6.23,0,0,1-.22.95,4.59,4.59,0,0,0-.48-.87c-.32-.33-.37-.62,0-1a.48.48,0,0,0,.16-.35,32.17,32.17,0,0,0,.05-3.54c-.11-1.65-.44-3.28-.56-4.93-.08-1,.07-2.06.09-3.05,0-.42,0-.83,0-1.25h-.18c0,.19-.09.39-.16.64l-.27-.45c0,1.39-.06,2.71-.09,4h-.22a2.54,2.54,0,0,0-.06-.67c-.25-2.54-.51-5.1-.76-7.68-.12-1.18-.28-2.35-.39-3.53a.91.91,0,0,1,.14-.66,1.37,1.37,0,0,0-.1-1.88v1.26h-.17a9.67,9.67,0,0,0-.12-1.17h-.28c.76,7.61,1.27,15.23,1.31,22.91a2.29,2.29,0,0,1-.23-.77,8.49,8.49,0,0,0-.76-2.75,1.86,1.86,0,0,1-.26-2c-.23-.93-.41-1.69-.58-2.46h-.33c-.5,1.74,0,3.55-.11,5.33-.82-4-1.82-7.94-1.77-12.07-.07.17-.14.33-.2.49h-.14l-.76-5.2.15,0c.12.48.22,1,.34,1.44l.26-.06-.54-2.88h-.14l-.15.39a35.37,35.37,0,0,1-.71-4.36,3.55,3.55,0,0,1,.25-2.67.83.83,0,0,0,0-.56c-.24-1.61-.5-3.22-.76-4.84h-.18c-.07.34-.13.67-.21,1.07-.14-.2-.21-.33-.29-.45.05,1.63.32,3.22.44,4.81a16.94,16.94,0,0,1,.08,4.77,3.21,3.21,0,0,0,0,.62l.16.06a1.49,1.49,0,0,1,.06-.51c.67,1,1.34,5.57,1,6.35-.13-1.27-.25-2.42-.36-3.58h-.2c0,.76.07,1.52.1,2.24h-.19c-.37-1.22-.3-2.52-.77-3.75s-.32-2.73-.82-4.09c-.81-2.29-1.29-4.63-1.88-7-.3-1.18-.54-2.36-.76-3.54s-.45-2.6-.69-3.91c-.2-1.16-.46-2.29-.65-3.46a1.13,1.13,0,0,1,.22-.61c.24-.41.66-.76.76-1.21a10.35,10.35,0,0,0,.32-2.88c-.18-2.73-.38-5.48-.82-8.18a31.7,31.7,0,0,0-1.62-5.73c-.64-1.8-1.52-3.47-1.57-5.47,0-1.42-.54-2.84-.62-4.27a46.41,46.41,0,0,0-1.39-9.82,12.63,12.63,0,0,1-.37-1.81q-.86-6.68-1.7-13.37a2.45,2.45,0,0,0-.22-.5l-.2.05a2.91,2.91,0,0,0,0,.59c.45,3.23.91,6.46,1.35,9.69.26,1.87.53,3.75.71,5.63s.12,3.69.31,5.51c.27,2.62.68,5.21,1,7.81a5.79,5.79,0,0,1,0,1,9,9,0,0,1-.56-2c-.32-2.08-.63-4.16-.91-6.24-.38-2.86-.71-5.73-1.08-8.59-.05-.35-.17-.71-.25-1.07l-.19,0A.89.89,0,0,0,154,45c.24,2.55.49,5.08.7,7.62a10.08,10.08,0,0,1,0,4c-.09.31-.09.77-.55.63-.19,0-.34-.43-.43-.68a11.15,11.15,0,0,1-.28-1.14h-.19a.58.58,0,0,0-.06.26,8.6,8.6,0,0,1,0,1.13,1.21,1.21,0,0,1-.22.76c-.68.8-.64,1.45.25,2a1.28,1.28,0,0,1,.64,1.15c.13,1.1.3,2.2.48,3.29.22,1.31.49,2.6.68,3.91a41.14,41.14,0,0,1,.86,6.95,3.68,3.68,0,0,0,.59,2.16A3.07,3.07,0,0,1,157.1,79c0,.49.09,1,.08,1.48,0,1.32,0,2.64-.07,4a2.06,2.06,0,0,1,0,.44c-1.22-1.39-1.53-2-2.1-4.44-.28-1.24-.17-2.55-.45-3.81a59.91,59.91,0,0,1-1.2-9.8,4.83,4.83,0,0,0-.14-.66H153l.09,2.63h-.13l-.87-5h-.23c.16,1.23.32,2.46.5,3.81a14.15,14.15,0,0,1-1.26-2.29q-1.2-3.81-2.21-7.72c-.49-2-.8-3.93-1.25-5.89-.59-2.55-1.24-5.08-1.83-7.62-1-4.31-2-8.71-3-13.08a1,1,0,0,0-.13-.28.72.72,0,0,0-.13.53"/></clipPath><linearGradient id="Sfumatura_senza_nome_112" x1="-1137.27" y1="-714.53" x2="-1136.51" y2="-714.53" gradientTransform="translate(257699.07 161991.5) scale(226.52)" gradientUnits="userSpaceOnUse"><stop offset="0" stop-color="#4646ff"/><stop offset="0.13" stop-color="#4646ff"/><stop offset="0.21" stop-color="#4e7ad7"/><stop offset="0.34" stop-color="#58c1a1"/><stop offset="0.43" stop-color="#5fee7f"/><stop offset="0.48" stop-color="#61ff72"/><stop offset="0.6" stop-color="#8fff4c"/><stop offset="0.78" stop-color="#d3ff16"/><stop offset="0.87" stop-color="#edff00"/><stop offset="1" stop-color="#edff00"/></linearGradient><clipPath id="clip-path-2" transform="translate(0 14)"><path class="cls-1" d="M203.65,90.93l-.5,2.19a1.66,1.66,0,0,1,.5-2.19m1.15-5.4.34.09c-.64,1.26-.13,2.85-1.4,4.1.38-1.52.73-2.85,1.06-4.19m2.29-8.07c-1.57,4.65-3.11,9.32-4.71,14a51.19,51.19,0,0,0-2.7,9.55c-.2,1.52-.31,3-.39,4.51a3.36,3.36,0,0,0,.38,1l.8-.5h.17a3.79,3.79,0,0,1,0,.77l.38.07c2.28-9.86,4.14-19.81,6.52-29.66l-.25-.08a1.51,1.51,0,0,0-.15.28"/></clipPath><linearGradient id="Sfumatura_senza_nome_112-2" x1="-1132.2" y1="-702.82" x2="-1131.44" y2="-702.82" gradientTransform="translate(42453.96 26328.34) scale(37.33)" xlink:href="#Sfumatura_senza_nome_112"/><clipPath id="clip-path-3" transform="translate(0 14)"><path class="cls-1" d="M162.86,29.25a7.31,7.31,0,0,0-.14.92c-.08,1.88-.11,3.74-.33,5.62a57.18,57.18,0,0,0,0,7.05,12.05,12.05,0,0,1-.17,2.25,21.5,21.5,0,0,0-.44,7.45,12.58,12.58,0,0,0,1.12,3.26c.42.87,1.22.81,1.67,0a3.61,3.61,0,0,0,.37-1.06,19.53,19.53,0,0,0-1.25-10.36,12.67,12.67,0,0,1-.6-1.8c-.23-1.09-.41-2.19-.56-3.29a2.19,2.19,0,0,1,.4-2.07c.1-.09.1-.31.11-.46.05-2.29.09-4.57.12-6.86a3.52,3.52,0,0,0-.1-.65h-.21"/></clipPath><linearGradient id="Sfumatura_senza_nome_112-3" x1="-1130.6" y1="-698.14" x2="-1129.83" y2="-698.14" gradientTransform="translate(32815.99 20212.1) scale(28.89)" xlink:href="#Sfumatura_senza_nome_112"/><clipPath id="clip-path-4" transform="translate(0 14)"><path class="cls-1" d="M122.61,85.88a4.13,4.13,0,0,0,.14.42c.44.92.92,1.82,1.29,2.75.17.44,0,1,.19,1.42.41,1.08.9,2.13,1.38,3.19.23.49.51,1,.76,1.45l.17-.08-1.62-3.81a7,7,0,0,1,1.21,2c.94,2.47,1.85,5,2.72,7.48.37,1.06.56,2.19.93,3.27a21.89,21.89,0,0,0,1.15,2.57c.12.24.41.4.62.6l.22-.09a2.27,2.27,0,0,0,0-.9c-.51-1.13-1.06-2.29-1.63-3.36-.38-.71-.77-1.41-1.2-2.12l.14-.1.76.43.22-.11a7.61,7.61,0,0,0-.31-1.25c-.45-1.07-.93-2.12-1.47-3.15-.65-1.26-1.43-2.44-2-3.72-1-2.12-2-4.28-3-6.42a4.57,4.57,0,0,0-.41-.57l-.15.1"/></clipPath><linearGradient id="Sfumatura_senza_nome_112-4" x1="-1123.42" y1="-684" x2="-1122.65" y2="-684" gradientTransform="translate(18468.39 11266.16) scale(16.33)" xlink:href="#Sfumatura_senza_nome_112"/><clipPath id="clip-path-5" transform="translate(0 14)"><path class="cls-1" d="M198,181.5a8.64,8.64,0,0,1-.76,2.23,6.47,6.47,0,0,0-1.14,4.84,1.55,1.55,0,0,0,.83,1c.19.08.77-.33,1-.65a5.79,5.79,0,0,0,.59-4.85,3.2,3.2,0,0,1-.1-2.05,8.12,8.12,0,0,0,.17-1.1l-.34-.06c-.06.21-.09.42-.16.62"/></clipPath><linearGradient id="Sfumatura_senza_nome_112-5" x1="-1114.15" y1="-668.13" x2="-1113.38" y2="-668.13" gradientTransform="translate(11935.19 7227.41) scale(10.54)" xlink:href="#Sfumatura_senza_nome_112"/><clipPath id="clip-path-6" transform="translate(0 14)"><path class="cls-1" d="M219,124.76l-.11-.09.2-.93a.73.73,0,0,1-.19-.07c-2.18,3.81-5.13,7.18-6.76,11.33.86-.39,7.89-10.72,8-11.77L219,124.76"/></clipPath><linearGradient id="Sfumatura_senza_nome_112-6" x1="-1125.63" y1="-688.97" x2="-1124.87" y2="-688.97" gradientTransform="translate(21233.84 12999.09) scale(18.68)" xlink:href="#Sfumatura_senza_nome_112"/><clipPath id="clip-path-7" transform="translate(0 14)"><path class="cls-1" d="M205,151.51c-.36.59-.64,1.22-1,1.82-.09.18-.21.45-.37.49-.62.2-.68.7-.81,1.21a4.46,4.46,0,0,1-.45,1.11c-1.75,3.17-3.52,6.32-5.28,9.49a6.92,6.92,0,0,0-.28.76l.24.12c3.91-6.57,7.62-13.24,11.24-20l-.19-.12c-1,1.71-2.09,3.42-3.12,5.13"/></clipPath><linearGradient id="Sfumatura_senza_nome_112-7" x1="-1130.13" y1="-699.67" x2="-1129.37" y2="-699.67" gradientTransform="translate(34094 21146.42) scale(30)" xlink:href="#Sfumatura_senza_nome_112"/><clipPath id="clip-path-8" transform="translate(0 14)"><path class="cls-1" d="M185.5,232.12c-.37.58-.71,1.18-1,1.79a1.27,1.27,0,0,0-.54.11,2.27,2.27,0,0,0-.76,2.41,1.34,1.34,0,0,0,.76.68.94.94,0,0,0,.76-.43,11.19,11.19,0,0,0,.51-1.68c1-.06,1.48-.49,1.47-1.43a4.21,4.21,0,0,0-.35-1.35c-.12-.27-.29-.41-.46-.41a.59.59,0,0,0-.46.31"/></clipPath><linearGradient id="Sfumatura_senza_nome_112-8" x1="-1101.57" y1="-648.01" x2="-1100.81" y2="-648.01" gradientTransform="translate(8256.38 4984.42) scale(7.33)" xlink:href="#Sfumatura_senza_nome_112"/><clipPath id="clip-path-9" transform="translate(0 14)"><path class="cls-1" d="M145,144.16c.7,1.61,2.18,2.87,1.9,4.92a7.3,7.3,0,0,0,.54,2.61,3.57,3.57,0,0,0,.4.68l.24-.12c-.25-1.09-.5-2.16-.76-3.23,1.07,1.6,1.3,3.61,2.72,5a1.43,1.43,0,0,0-.08-.87c-.61-1.28-1.24-2.55-1.86-3.81-1.22-2.48-2.8-4.78-3.61-7.45a1.05,1.05,0,0,0-.17-.29,4.48,4.48,0,0,0,.68,2.55"/></clipPath><linearGradient id="Sfumatura_senza_nome_112-9" x1="-1110.2" y1="-657.73" x2="-1109.44" y2="-657.73" gradientTransform="translate(10189.14 6100.29) scale(9.05)" xlink:href="#Sfumatura_senza_nome_112"/><clipPath id="clip-path-10" transform="translate(0 14)"><path class="cls-1" d="M130.3,69.08a23.9,23.9,0,0,0,.94,2.82A5.66,5.66,0,0,0,132,73a2.68,2.68,0,0,0,.27-.07,5.58,5.58,0,0,0,.12-1A7.61,7.61,0,0,0,131,68.22c-.45-.77-.86-1.57-1.24-2.38l-.22-.48a34.11,34.11,0,0,0,.77,3.72"/></clipPath><linearGradient id="Sfumatura_senza_nome_112-10" x1="-1100.73" y1="-629.91" x2="-1099.97" y2="-629.91" gradientTransform="translate(7062.98 4037.61) scale(6.3)" xlink:href="#Sfumatura_senza_nome_112"/><clipPath id="clip-path-11" transform="translate(0 14)"><path class="cls-1" d="M139.19,29.18c0,.21,0,.41,0,.61.23,1.26.51,2.5.7,3.76.28,1.86,1.07,3.61.86,5.6a10.37,10.37,0,0,0,.76,3.44c0,.14.27.24.41.35a3.58,3.58,0,0,0,.24-.48.52.52,0,0,0,0-.27c-.58-3-1.22-6-1.85-8.92-.17-.83-.28-1.68-.44-2.52-.1-.53-.25-1.09-.38-1.63l-.25.06"/></clipPath><linearGradient id="Sfumatura_senza_nome_112-11" x1="-1120.85" y1="-674.1" x2="-1120.09" y2="-674.1" gradientTransform="translate(14672.01 8779.17) scale(12.97)" xlink:href="#Sfumatura_senza_nome_112"/><clipPath id="clip-path-12" transform="translate(0 14)"><path class="cls-1" d="M155.78,216.49a3.05,3.05,0,0,0,.5,1.52.93.93,0,0,0,.76.42,1.12,1.12,0,0,0,.62-.72,2.93,2.93,0,0,0-.61-2.59c-.25-.32-.48-.64-.85-1.15a17.06,17.06,0,0,0-.43,2.54"/></clipPath><linearGradient id="Sfumatura_senza_nome_112-12" x1="-1076.84" y1="-600.73" x2="-1076.08" y2="-600.73" gradientTransform="translate(4873.42 2847.38) scale(4.38)" xlink:href="#Sfumatura_senza_nome_112"/><clipPath id="clip-path-13" transform="translate(0 14)"><path class="cls-1" d="M172.76,94.67c0,1.67,0,3.35.06,5a7.24,7.24,0,0,0,.4,1.52h.26c.14-.24.38-.48.39-.76a14,14,0,0,0-.08-2.51c-.23-1.42-.56-2.82-.86-4.23,0-.08-.11-.15-.28-.37,0,.56.1.92.11,1.3"/></clipPath><linearGradient id="Sfumatura_senza_nome_112-13" x1="-1108.93" y1="-651.09" x2="-1108.17" y2="-651.09" gradientTransform="translate(9075.89 5325.53) scale(8.03)" xlink:href="#Sfumatura_senza_nome_112"/><clipPath id="clip-path-14" transform="translate(0 14)"><path class="cls-1" d="M192.05,115.7c-.4,1.76-.81,3.53-1.15,5.33a3.07,3.07,0,0,0,.24,1.11h.16l-.21,1.64h.27l1.29-9.34-.22,0c-.13.45-.28.88-.38,1.32"/></clipPath><linearGradient id="Sfumatura_senza_nome_112-14" x1="-1117.01" y1="-670.15" x2="-1116.25" y2="-670.15" gradientTransform="translate(12686.89 7618.06) scale(11.19)" xlink:href="#Sfumatura_senza_nome_112"/><clipPath id="clip-path-15" transform="translate(0 14)"><path class="cls-1" d="M156.28,127.8c-.23-3.58-2.29-6.5-3.49-9.73,1.07,3.27,1.76,6.69,3.49,9.73"/></clipPath><linearGradient id="Sfumatura_senza_nome_112-15" x1="-1106.98" y1="-649.39" x2="-1106.22" y2="-649.39" gradientTransform="translate(8842 5220.63) scale(7.85)" xlink:href="#Sfumatura_senza_nome_112"/><clipPath id="clip-path-16" transform="translate(0 14)"><path class="cls-1" d="M210.46,148.18a1.67,1.67,0,0,0-.37.51,41.59,41.59,0,0,1-3.7,6.9.44.44,0,0,0-.07.19l.1.09a1.61,1.61,0,0,0,.23-.22,5.61,5.61,0,0,1,2.21-2.49.72.72,0,0,0,.31-.38c.62-1.4,1.22-2.81,1.81-4.21a.49.49,0,0,0-.09-.42.25.25,0,0,0-.17,0,.48.48,0,0,0-.26.07"/></clipPath><linearGradient id="Sfumatura_senza_nome_112-16" x1="-1117.43" y1="-673.1" x2="-1116.67" y2="-673.1" gradientTransform="translate(13234.09 8000.29) scale(11.66)" xlink:href="#Sfumatura_senza_nome_112"/><clipPath id="clip-path-17" transform="translate(0 14)"><path class="cls-1" d="M147.6,48.86a2.35,2.35,0,0,0,0,.53q1.05,4.89,2.13,9.77a2.7,2.7,0,0,0,.36.67l.3-.1c-.66-3.67-1.8-7.23-2.5-10.9h-.29"/></clipPath><linearGradient id="Sfumatura_senza_nome_112-17" x1="-1115.77" y1="-663.48" x2="-1115.01" y2="-663.48" gradientTransform="translate(11493.27 6801.94) scale(10.17)" xlink:href="#Sfumatura_senza_nome_112"/><clipPath id="clip-path-18" transform="translate(0 14)"><path class="cls-1" d="M149.14,26.41a1.35,1.35,0,0,0-1,1.37,1.24,1.24,0,0,0,1.52.76c.6-.14,1.16-.85,1.05-1.31a1.37,1.37,0,0,0-1.28-.82,1.13,1.13,0,0,0-.26,0"/></clipPath><linearGradient id="Sfumatura_senza_nome_112-18" x1="-1066.96" y1="-541.3" x2="-1066.2" y2="-541.3" gradientTransform="translate(3477.95 1716.41) scale(3.12)" xlink:href="#Sfumatura_senza_nome_112"/><clipPath id="clip-path-19" transform="translate(0 14)"><path class="cls-1" d="M139.63,182a1,1,0,0,0,.23.76,3.44,3.44,0,0,0,2.71.72c.36,0,.46-.27.18-.52a10.29,10.29,0,0,0-1.43-1.13,4.93,4.93,0,0,0-1.19-.35c-.2.21-.47.36-.5.56"/></clipPath><linearGradient id="Sfumatura_senza_nome_112-19" x1="-1017.6" y1="-476.12" x2="-1016.84" y2="-476.12" gradientTransform="translate(2367.93 1225.19) scale(2.19)" xlink:href="#Sfumatura_senza_nome_112"/><clipPath id="clip-path-20" transform="translate(0 14)"><path class="cls-1" d="M160,241c.14.53.44,1,1,.93s.76-.62.76-1.13a2.6,2.6,0,0,0-1.21-2.1A2.74,2.74,0,0,0,160,241"/></clipPath><linearGradient id="Sfumatura_senza_nome_112-20" x1="-1056.24" y1="-566.09" x2="-1055.48" y2="-566.09" gradientTransform="translate(3699.05 2136.77) scale(3.35)" xlink:href="#Sfumatura_senza_nome_112"/><clipPath id="clip-path-21" transform="translate(0 14)"><path class="cls-1" d="M211.64,131.06a33.47,33.47,0,0,0,4-7.82,44.89,44.89,0,0,0-4,7.82"/></clipPath><linearGradient id="Sfumatura_senza_nome_112-21" x1="-1117.59" y1="-671.68" x2="-1116.83" y2="-671.68" gradientTransform="translate(12961.05 7791.01) scale(11.41)" xlink:href="#Sfumatura_senza_nome_112"/><clipPath id="clip-path-22" transform="translate(0 14)"><path class="cls-1" d="M181.49,234.55c.12.28.45.69.66.67a1.1,1.1,0,0,0,.83-.6c.48-1.33.57-1.3-.68-2.34a2.05,2.05,0,0,0-.81,2.29"/></clipPath><linearGradient id="Sfumatura_senza_nome_112-22" x1="-1057.65" y1="-566.85" x2="-1056.89" y2="-566.85" gradientTransform="translate(3714.72 2127.05) scale(3.34)" xlink:href="#Sfumatura_senza_nome_112"/><clipPath id="clip-path-23" transform="translate(0 14)"><path class="cls-1" d="M136.49,54.86a5,5,0,0,0-1.3-4.19c-.32,1.29.44,3.93,1.3,4.19"/></clipPath><linearGradient id="Sfumatura_senza_nome_112-23" x1="-1073.2" y1="-563.9" x2="-1072.44" y2="-563.9" gradientTransform="translate(3946.25 2054.6) scale(3.55)" xlink:href="#Sfumatura_senza_nome_112"/><clipPath id="clip-path-24" transform="translate(0 14)"><path class="cls-1" d="M161.85,193.22v2.95a4.43,4.43,0,0,0,.06,1.26c.08.29.44.48.67.71.16-.25.45-.52.44-.76a7.18,7.18,0,0,0-.28-1.58c-.18-.68-.39-1.33-.58-2-.06-.21-.1-.41-.15-.62l-.14,0"/></clipPath><linearGradient id="Sfumatura_senza_nome_112-24" x1="-1084.54" y1="-610.57" x2="-1083.78" y2="-610.57" gradientTransform="translate(5483.95 3193.55) scale(4.91)" xlink:href="#Sfumatura_senza_nome_112"/><clipPath id="clip-path-25" transform="translate(0 14)"><path class="cls-1" d="M191.73,100.93a.83.83,0,0,0,.25-.49c.15-1.12.28-2.28.44-3.36a5.25,5.25,0,0,1,.37-1.79,4.21,4.21,0,0,0,.15-2.82c-.47,2.82-1.24,5.57-1.21,8.46"/></clipPath><linearGradient id="Sfumatura_senza_nome_112-25" x1="-1115.15" y1="-663.44" x2="-1114.39" y2="-663.44" gradientTransform="translate(11322.97 6721.77) scale(9.99)" xlink:href="#Sfumatura_senza_nome_112"/><clipPath id="clip-path-26" transform="translate(0 14)"><path class="cls-1" d="M163.82,196.85a13.36,13.36,0,0,0-.36-3.45l-.33.19c-.1-.26-.16-.51-.26-.76-.59,1.17,0,3.56.95,4"/></clipPath><linearGradient id="Sfumatura_senza_nome_112-26" x1="-1066.18" y1="-575" x2="-1065.42" y2="-575" gradientTransform="translate(4053.02 2293.58) scale(3.65)" xlink:href="#Sfumatura_senza_nome_112"/><clipPath id="clip-path-27" transform="translate(0 14)"><path class="cls-1" d="M203.8,144.5l.28.12a23.46,23.46,0,0,0,3-6.1l-.24-.11-3,6.09"/></clipPath><linearGradient id="Sfumatura_senza_nome_112-27" x1="-1111.13" y1="-658.73" x2="-1110.37" y2="-658.73" gradientTransform="translate(10090.39 6004.17) scale(8.9)" xlink:href="#Sfumatura_senza_nome_112"/><clipPath id="clip-path-28" transform="translate(0 14)"><path class="cls-1" d="M146.15,138.61c.11.46.21.92.33,1.37.54,2.28,1.08,4.57,1.64,6.86.11.46.24,1,.76,1l-2.58-9.3-.13,0"/></clipPath><linearGradient id="Sfumatura_senza_nome_112-28" x1="-1107.25" y1="-652.09" x2="-1106.49" y2="-652.09" gradientTransform="translate(9136.51 5438.14) scale(8.12)" xlink:href="#Sfumatura_senza_nome_112"/><clipPath id="clip-path-29" transform="translate(0 14)"><path class="cls-1" d="M146.82,154.41c.82,2.94,1.69,5.87,2.71,8.75l.29-.11q-1.4-4.35-2.76-8.72l-.22.08"/></clipPath><linearGradient id="Sfumatura_senza_nome_112-29" x1="-1104.59" y1="-647.05" x2="-1103.83" y2="-647.05" gradientTransform="translate(8560.84 5089.28) scale(7.62)" xlink:href="#Sfumatura_senza_nome_112"/><clipPath id="clip-path-30" transform="translate(0 14)"><path class="cls-1" d="M216.73,142.13c1.31-1,3.27-3.86,3.29-4.72-1.12,1.65-2.65,2.87-3.29,4.72"/></clipPath><linearGradient id="Sfumatura_senza_nome_112-30" x1="-1106.71" y1="-649.57" x2="-1105.95" y2="-649.57" gradientTransform="translate(8572.48 5044.05) scale(7.55)" xlink:href="#Sfumatura_senza_nome_112"/><clipPath id="clip-path-31" transform="translate(0 14)"><path class="cls-1" d="M119.11,48.29c.24,1,.47,2,.76,3.05a2.08,2.08,0,0,0,.44.76c.08.11.32.25.38.21s.3-.3.26-.42a5.55,5.55,0,0,0-.44-1.24c-.32-.69-.69-1.37-1.05-2a3.62,3.62,0,0,0-.2-.33l-.12,0"/></clipPath><linearGradient id="Sfumatura_senza_nome_112-31" x1="-1068.63" y1="-553.16" x2="-1067.87" y2="-553.16" gradientTransform="translate(3700.32 1903.37) scale(3.35)" xlink:href="#Sfumatura_senza_nome_112"/><clipPath id="clip-path-32" transform="translate(0 14)"><path class="cls-1" d="M164.09,191.55c0,.67-.05,1.34-.07,2h.34c0-.25,0-.51.08-.86.62-.17.54-.67.42-1.17s-.28-1.18-.44-1.77a2.2,2.2,0,0,0-.27-.47c0,.85,0,1.52-.06,2.25"/></clipPath><linearGradient id="Sfumatura_senza_nome_112-32" x1="-1082.73" y1="-606.84" x2="-1081.97" y2="-606.84" gradientTransform="translate(5224.06 3026.96) scale(4.67)" xlink:href="#Sfumatura_senza_nome_112"/><clipPath id="clip-path-33" transform="translate(0 14)"><path class="cls-1" d="M159.9,129.13c.27-1.49-.49-2.73-1-4,.35,1.34.05,2.84,1,4"/></clipPath><linearGradient id="Sfumatura_senza_nome_112-33" x1="-1069.76" y1="-568.96" x2="-1069" y2="-568.96" gradientTransform="translate(4008.44 2175.39) scale(3.6)" xlink:href="#Sfumatura_senza_nome_112"/><clipPath id="clip-path-34" transform="translate(0 14)"><path class="cls-1" d="M156.6,174.62a5.79,5.79,0,0,0,.76,1.68,2.33,2.33,0,0,1,.5,1.8c0,.58-.13.58.56,1l-.76-4.29h-.25l.15,1.06h-.11l-.62-1.38-.23.09"/></clipPath><linearGradient id="Sfumatura_senza_nome_112-34" x1="-1075.38" y1="-590.37" x2="-1074.62" y2="-590.37" gradientTransform="translate(4550.24 2587.59) scale(4.08)" xlink:href="#Sfumatura_senza_nome_112"/><clipPath id="clip-path-35" transform="translate(0 14)"><path class="cls-1" d="M115.71,83.15c1.06,1.33,1.32,3,2.28,4.46l.35-.18c-.54-1.6-1.71-2.89-2.28-4.49l-.4.21"/></clipPath><linearGradient id="Sfumatura_senza_nome_112-35" x1="-1070.23" y1="-564.32" x2="-1069.47" y2="-564.32" gradientTransform="translate(3937.58 2099.9) scale(3.57)" xlink:href="#Sfumatura_senza_nome_112"/><clipPath id="clip-path-36" transform="translate(0 14)"><path class="cls-1" d="M186.25,102.65c-.06.87-.09,1.75-.09,2.62a1.8,1.8,0,0,0,.19.58c.14-.19.37-.38.37-.57v-3.36l-.2-.1a4,4,0,0,0-.24.83"/></clipPath><linearGradient id="Sfumatura_senza_nome_112-36" x1="-1085.6" y1="-598.19" x2="-1084.84" y2="-598.19" gradientTransform="translate(5046.83 2783.7) scale(4.48)" xlink:href="#Sfumatura_senza_nome_112"/><clipPath id="clip-path-37" transform="translate(0 14)"><path class="cls-1" d="M160.06,35.64a2.62,2.62,0,0,0-.17-2.83,2.39,2.39,0,0,0,.17,2.83"/></clipPath><linearGradient id="Sfumatura_senza_nome_112-37" x1="-1061.83" y1="-527.49" x2="-1061.07" y2="-527.49" gradientTransform="translate(3257.35 1574.51) scale(2.92)" xlink:href="#Sfumatura_senza_nome_112"/><clipPath id="clip-path-38" transform="translate(0 14)"><path class="cls-1" d="M150.51,186.71a.42.42,0,0,0,.8-.23,2,2,0,0,0-.93-1.77,2.21,2.21,0,0,0,.13,2"/></clipPath><linearGradient id="Sfumatura_senza_nome_112-38" x1="-1013.15" y1="-470.23" x2="-1012.39" y2="-470.23" gradientTransform="translate(2278.64 1173.33) scale(2.1)" xlink:href="#Sfumatura_senza_nome_112"/><clipPath id="clip-path-39" transform="translate(0 14)"><path class="cls-1" d="M208.71,129.49l.35.13,1.52-3.75-.24-.1a14.12,14.12,0,0,0-1.61,3.72"/></clipPath><linearGradient id="Sfumatura_senza_nome_112-39" x1="-1093.24" y1="-618.19" x2="-1092.47" y2="-618.19" gradientTransform="translate(5978.64 3391.74) scale(5.28)" xlink:href="#Sfumatura_senza_nome_112"/><clipPath id="clip-path-40" transform="translate(0 14)"><path class="cls-1" d="M157.24,169.38c.14,1.07.28,2.15.4,3.18l1.48.26a4,4,0,0,1-1.53-3.55l-.34.11"/></clipPath><linearGradient id="Sfumatura_senza_nome_112-40" x1="-1064.54" y1="-567.28" x2="-1063.78" y2="-567.28" gradientTransform="translate(3882.06 2156.51) scale(3.5)" xlink:href="#Sfumatura_senza_nome_112"/><clipPath id="clip-path-41" transform="translate(0 14)"><polyline class="cls-1" points="151.37 147.22 153.7 152.51 153.98 152.38 151.57 147.13 151.37 147.22"/></clipPath><linearGradient id="Sfumatura_senza_nome_112-41" x1="-1077.77" y1="-590.64" x2="-1077.01" y2="-590.64" gradientTransform="translate(4666.5 2624.58) scale(4.19)" xlink:href="#Sfumatura_senza_nome_112"/><clipPath id="clip-path-42" transform="translate(0 14)"><path class="cls-1" d="M203.44,179.69c-.09.23.14.57.23.86.2-.21.54-.4.59-.64a16.74,16.74,0,0,0,.21-2h-.15a17.76,17.76,0,0,0-.88,1.81"/></clipPath><linearGradient id="Sfumatura_senza_nome_112-42" x1="-1065.23" y1="-570.39" x2="-1064.47" y2="-570.39" gradientTransform="translate(3868.62 2141.35) scale(3.44)" xlink:href="#Sfumatura_senza_nome_112"/><clipPath id="clip-path-43" transform="translate(0 14)"><path class="cls-1" d="M192.77,112.41a.47.47,0,0,1,.23,0q.52-2.76,1.06-5.51l-.29-.07c-.34,1.86-.66,3.69-1,5.54"/></clipPath><linearGradient id="Sfumatura_senza_nome_112-43" x1="-1103.87" y1="-640.56" x2="-1103.11" y2="-640.56" gradientTransform="translate(7742.04 4491.11) scale(6.84)" xlink:href="#Sfumatura_senza_nome_112"/><clipPath id="clip-path-44" transform="translate(0 14)"><path class="cls-1" d="M154.2,100.82a4.73,4.73,0,0,0-.41-2.89,2.88,2.88,0,0,0,.41,2.89"/></clipPath><linearGradient id="Sfumatura_senza_nome_112-44" x1="-1052.36" y1="-527.01" x2="-1051.6" y2="-527.01" gradientTransform="translate(3091.05 1569.72) scale(2.79)" xlink:href="#Sfumatura_senza_nome_112"/><clipPath id="clip-path-45" transform="translate(0 14)"><path class="cls-1" d="M235.69,233.52a.79.79,0,0,0-.34.63.84.84,0,0,0,1,.62l.06,0c.19,0,.35-.31.45-.41a1.14,1.14,0,0,0-1-.86.45.45,0,0,0-.2,0"/></clipPath><linearGradient id="Sfumatura_senza_nome_112-45" x1="-973.36" y1="-403.82" x2="-972.6" y2="-403.82" gradientTransform="translate(1772.31 872.2) scale(1.58)" xlink:href="#Sfumatura_senza_nome_112"/><clipPath id="clip-path-46" transform="translate(0 14)"><path class="cls-1" d="M194.7,119.31l.32.11c.33-1.53.68-3,1-4.63l-.25-.06c-.37,1.52-.73,3-1.08,4.57"/></clipPath><linearGradient id="Sfumatura_senza_nome_112-46" x1="-1097.79" y1="-627.13" x2="-1097.03" y2="-627.13" gradientTransform="translate(6635.8 3798.33) scale(5.87)" xlink:href="#Sfumatura_senza_nome_112"/><clipPath id="clip-path-47" transform="translate(0 14)"><path class="cls-1" d="M188.6,201.2c0,.14.18.37.26.36a.63.63,0,0,0,.43-.26,1.87,1.87,0,0,0-.06-1.78,1.51,1.51,0,0,0-.63,1.68"/></clipPath><linearGradient id="Sfumatura_senza_nome_112-47" x1="-1033.99" y1="-513.72" x2="-1033.23" y2="-513.72" gradientTransform="translate(2763.7 1479.72) scale(2.49)" xlink:href="#Sfumatura_senza_nome_112"/><clipPath id="clip-path-48" transform="translate(0 14)"><path class="cls-1" d="M198.16,155.66l.33.2c.57-1,1.15-2,1.72-3l-.26-.16c-.61,1-1.2,2-1.79,2.93"/></clipPath><linearGradient id="Sfumatura_senza_nome_112-48" x1="-1083.93" y1="-604.13" x2="-1083.17" y2="-604.13" gradientTransform="translate(5098.52 2884.94) scale(4.52)" xlink:href="#Sfumatura_senza_nome_112"/><clipPath id="clip-path-49" transform="translate(0 14)"><path class="cls-1" d="M108.28,80a2.1,2.1,0,0,0-1.16-2.16A2.85,2.85,0,0,0,108.28,80"/></clipPath><linearGradient id="Sfumatura_senza_nome_112-49" x1="-974.79" y1="-345.91" x2="-974.03" y2="-345.91" gradientTransform="translate(1559.36 594.35) scale(1.49)" xlink:href="#Sfumatura_senza_nome_112"/><clipPath id="clip-path-50" transform="translate(0 14)"><path class="cls-1" d="M196.09,211.4l.19.29,2.94-1.95c-.06-.09-.11-.18-.18-.27l-2.95,1.93"/></clipPath><linearGradient id="Sfumatura_senza_nome_112-50" x1="-1079.84" y1="-604.18" x2="-1079.08" y2="-604.18" gradientTransform="translate(5012.82 2905.24) scale(4.46)" xlink:href="#Sfumatura_senza_nome_112"/><clipPath id="clip-path-51" transform="translate(0 14)"><path class="cls-1" d="M169.44,111.74c-.32,1.31.18,2.56.21,3.81h.21l-.24-3.81h-.18"/></clipPath><linearGradient id="Sfumatura_senza_nome_112-51" x1="-1079.86" y1="-589.32" x2="-1079.1" y2="-589.32" gradientTransform="translate(4618.29 2541.62) scale(4.12)" xlink:href="#Sfumatura_senza_nome_112"/><clipPath id="clip-path-52" transform="translate(0 14)"><path class="cls-1" d="M167.89,242.79a.6.6,0,0,0,.37.33.49.49,0,0,0,.37-.25,1.08,1.08,0,0,0-.29-1.4,1.16,1.16,0,0,0-.45,1.32"/></clipPath><linearGradient id="Sfumatura_senza_nome_112-52" x1="-991.5" y1="-445.59" x2="-990.73" y2="-445.59" gradientTransform="translate(2021.56 1075.55) scale(1.87)" xlink:href="#Sfumatura_senza_nome_112"/><clipPath id="clip-path-53" transform="translate(0 14)"><path class="cls-1" d="M122.55,68.89c-.07,1.09.28,1.82,1.22,2.1l-1-2.16-.23.06"/></clipPath><linearGradient id="Sfumatura_senza_nome_112-53" x1="-999.78" y1="-398.54" x2="-999.02" y2="-398.54" gradientTransform="translate(1842.74 755.39) scale(1.72)" xlink:href="#Sfumatura_senza_nome_112"/><clipPath id="clip-path-54" transform="translate(0 14)"><path class="cls-1" d="M177.86,87.47l.09,3.81h.28c0-1.28-.08-2.57-.12-3.85h-.25"/></clipPath><linearGradient id="Sfumatura_senza_nome_112-54" x1="-1083.5" y1="-592.1" x2="-1082.74" y2="-592.1" gradientTransform="translate(4792.21 2611.73) scale(4.26)" xlink:href="#Sfumatura_senza_nome_112"/><clipPath id="clip-path-55" transform="translate(0 14)"><path class="cls-1" d="M144.27,110.82c.42,1.27.84,2.52,1.25,3.81l.25-.08c-.42-1.27-.84-2.54-1.25-3.81l-.25.08"/></clipPath><linearGradient id="Sfumatura_senza_nome_112-55" x1="-1066.31" y1="-559.32" x2="-1065.55" y2="-559.32" gradientTransform="translate(3779.49 2019.94) scale(3.41)" xlink:href="#Sfumatura_senza_nome_112"/><clipPath id="clip-path-56" transform="translate(0 14)"><path class="cls-1" d="M183.58,215.25c0,.17.22.38.35.58.16-.19.43-.37.44-.56a6.54,6.54,0,0,0-.2-1.24h-.24a7.73,7.73,0,0,0-.35,1.25"/></clipPath><linearGradient id="Sfumatura_senza_nome_112-56" x1="-1013.34" y1="-472.48" x2="-1012.58" y2="-472.48" gradientTransform="translate(2316.47 1209.75) scale(2.11)" xlink:href="#Sfumatura_senza_nome_112"/><clipPath id="clip-path-57" transform="translate(0 14)"><path class="cls-1" d="M152.21,36.76a1.59,1.59,0,0,0-.33-2,1.56,1.56,0,0,0,.33,2"/></clipPath><linearGradient id="Sfumatura_senza_nome_112-57" x1="-1019.45" y1="-426.22" x2="-1018.68" y2="-426.22" gradientTransform="translate(2077.72 841.33) scale(1.89)" xlink:href="#Sfumatura_senza_nome_112"/><clipPath id="clip-path-58" transform="translate(0 14)"><path class="cls-1" d="M192.07,89.52h.23a3.08,3.08,0,0,0,.4-2.33h-.3c-.11.76-.22,1.52-.33,2.33"/></clipPath><linearGradient id="Sfumatura_senza_nome_112-58" x1="-1059.91" y1="-535.83" x2="-1059.15" y2="-535.83" gradientTransform="translate(3316.29 1669.06) scale(2.95)" xlink:href="#Sfumatura_senza_nome_112"/><clipPath id="clip-path-59" transform="translate(0 14)"><path class="cls-1" d="M151.79,145.08a5.93,5.93,0,0,0,1.18,2.63l.21-.09c-.39-.88-.77-1.77-1.14-2.65a.68.68,0,0,0-.25.11"/></clipPath><linearGradient id="Sfumatura_senza_nome_112-59" x1="-1026.79" y1="-482.49" x2="-1026.03" y2="-482.49" gradientTransform="translate(2459.57 1230) scale(2.25)" xlink:href="#Sfumatura_senza_nome_112"/><clipPath id="clip-path-60" transform="translate(0 14)"><path class="cls-1" d="M126.44,57.45c.51,1.34,1,2.67,1.45,4l.23-.08-1.44-4-.24.09"/></clipPath><linearGradient id="Sfumatura_senza_nome_112-60" x1="-1070.83" y1="-557.63" x2="-1070.07" y2="-557.63" gradientTransform="translate(3861.38 2005.52) scale(3.49)" xlink:href="#Sfumatura_senza_nome_112"/><clipPath id="clip-path-61" transform="translate(0 14)"><path class="cls-1" d="M154.52,167.74a2.78,2.78,0,0,0,.17.51c.1.2.32.36.36.56.11.62.4.59,1,.23l-1.2-1.46-.31.16"/></clipPath><linearGradient id="Sfumatura_senza_nome_112-61" x1="-962.78" y1="-360.27" x2="-962.01" y2="-360.27" gradientTransform="translate(1569.76 698.1) scale(1.47)" xlink:href="#Sfumatura_senza_nome_112"/><clipPath id="clip-path-62" transform="translate(0 14)"><path class="cls-1" d="M171.11,84.79c.37-1-.13-1.72-.27-2.48a3,3,0,0,0,.27,2.48"/></clipPath><linearGradient id="Sfumatura_senza_nome_112-62" x1="-1043.87" y1="-500.72" x2="-1043.11" y2="-500.72" gradientTransform="translate(2748.72 1320.33) scale(2.47)" xlink:href="#Sfumatura_senza_nome_112"/><clipPath id="clip-path-63" transform="translate(0 14)"><polyline class="cls-1" points="207.61 155.62 207.84 155.8 209.89 153.24 209.66 153.04 207.61 155.62"/></clipPath><linearGradient id="Sfumatura_senza_nome_112-63" x1="-1081.74" y1="-597.82" x2="-1080.98" y2="-597.82" gradientTransform="translate(4890.02 2743) scale(4.33)" xlink:href="#Sfumatura_senza_nome_112"/><clipPath id="clip-path-64" transform="translate(0 14)"><path class="cls-1" d="M118.11,126.29l1.42,2.09c.12-.07.24-.16.35-.24l-1.52-2-.25.19"/></clipPath><linearGradient id="Sfumatura_senza_nome_112-64" x1="-975.96" y1="-374.72" x2="-975.2" y2="-374.72" gradientTransform="translate(1642.91 711.81) scale(1.56)" xlink:href="#Sfumatura_senza_nome_112"/><clipPath id="clip-path-65" transform="translate(0 14)"><path class="cls-1" d="M173.39,92.24c0,1.15.08,2.28.12,3.45h.27l-.16-3.43h-.23"/></clipPath><linearGradient id="Sfumatura_senza_nome_112-65" x1="-1076.58" y1="-578.05" x2="-1075.82" y2="-578.05" gradientTransform="translate(4274.93 2296.34) scale(3.81)" xlink:href="#Sfumatura_senza_nome_112"/><clipPath id="clip-path-66" transform="translate(0 14)"><path class="cls-1" d="M164,81l.39,3.36.28,0c-.15-1.12-.3-2.24-.44-3.35H164"/></clipPath><linearGradient id="Sfumatura_senza_nome_112-66" x1="-1071.74" y1="-564.25" x2="-1070.98" y2="-564.25" gradientTransform="translate(3935.3 2068.78) scale(3.52)" xlink:href="#Sfumatura_senza_nome_112"/><clipPath id="clip-path-67" transform="translate(0 14)"><polyline class="cls-1" points="149.65 109.32 150.87 112.85 151.15 112.74 149.9 109.24 149.68 109.32"/></clipPath><linearGradient id="Sfumatura_senza_nome_112-67" x1="-1060.61" y1="-546.72" x2="-1059.85" y2="-546.72" gradientTransform="translate(3479.71 1827.75) scale(3.14)" xlink:href="#Sfumatura_senza_nome_112"/><clipPath id="clip-path-68" transform="translate(0 14)"><path class="cls-1" d="M198.7,92.31l.38.07.39-2.28h-.33c-.15.76-.3,1.52-.44,2.28"/></clipPath><linearGradient id="Sfumatura_senza_nome_112-68" x1="-1061.29" y1="-540.78" x2="-1060.53" y2="-540.78" gradientTransform="translate(3371.1 1708.14) scale(2.99)" xlink:href="#Sfumatura_senza_nome_112"/><clipPath id="clip-path-69" transform="translate(0 14)"><path class="cls-1" d="M213,143.52l.19.12,1.37-2.08-.2-.12c-.46.69-.91,1.39-1.36,2.08"/></clipPath><linearGradient id="Sfumatura_senza_nome_112-69" x1="-1064.95" y1="-558.92" x2="-1064.18" y2="-558.92" gradientTransform="translate(3714.18 1981.37) scale(3.29)" xlink:href="#Sfumatura_senza_nome_112"/><clipPath id="clip-path-70" transform="translate(0 14)"><path class="cls-1" d="M211.66,142.1l.26.15,1.35-2.29-.29-.16-1.32,2.33"/></clipPath><linearGradient id="Sfumatura_senza_nome_112-70" x1="-1070.41" y1="-570.77" x2="-1069.65" y2="-570.77" gradientTransform="translate(4009.57 2167.26) scale(3.55)" xlink:href="#Sfumatura_senza_nome_112"/><clipPath id="clip-path-71" transform="translate(0 14)"><path class="cls-1" d="M145.15,126c.25.76.49,1.52.76,2.33l.32-.1c-.26-.77-.53-1.53-.76-2.29l-.26.09"/></clipPath><linearGradient id="Sfumatura_senza_nome_112-71" x1="-1027.47" y1="-478.34" x2="-1026.71" y2="-478.34" gradientTransform="translate(2455.59 1203.42) scale(2.25)" xlink:href="#Sfumatura_senza_nome_112"/><clipPath id="clip-path-72" transform="translate(0 14)"><path class="cls-1" d="M169.73,116.86c0,1,.06,2,.1,3h.27l-.09-3h-.28"/></clipPath><linearGradient id="Sfumatura_senza_nome_112-72" x1="-1067.21" y1="-561.67" x2="-1066.45" y2="-561.67" gradientTransform="translate(3807.67 2033.68) scale(3.41)" xlink:href="#Sfumatura_senza_nome_112"/><clipPath id="clip-path-73" transform="translate(0 14)"><path class="cls-1" d="M202.89,83.15l.3.07a2.76,2.76,0,0,0,.38-2l-.23,0-.45,2"/></clipPath><linearGradient id="Sfumatura_senza_nome_112-73" x1="-1049.8" y1="-510.8" x2="-1049.03" y2="-510.8" gradientTransform="translate(2899.41 1394.95) scale(2.57)" xlink:href="#Sfumatura_senza_nome_112"/><clipPath id="clip-path-74" transform="translate(0 14)"><path class="cls-1" d="M203.11,175.64l.18.18,2.21-2.21-.18-.18-2.21,2.21"/></clipPath><linearGradient id="Sfumatura_senza_nome_112-74" x1="-1077.12" y1="-591.91" x2="-1076.36" y2="-591.91" gradientTransform="translate(4618.18 2601.45) scale(4.1)" xlink:href="#Sfumatura_senza_nome_112"/><clipPath id="clip-path-75" transform="translate(0 14)"><polyline class="cls-1" points="156.65 172.35 158.49 174.39 158.72 174.17 156.85 172.2 156.69 172.35"/></clipPath><linearGradient id="Sfumatura_senza_nome_112-75" x1="-909.8" y1="-259.8" x2="-909.03" y2="-259.8" gradientTransform="translate(1187.08 466.86) scale(1.13)" xlink:href="#Sfumatura_senza_nome_112"/><clipPath id="clip-path-76" transform="translate(0 14)"><polyline class="cls-1" points="148.82 138.95 150 140.89 150.24 140.75 149.15 138.75 148.82 138.95"/></clipPath><linearGradient id="Sfumatura_senza_nome_112-76" x1="-987.28" y1="-395.86" x2="-986.52" y2="-395.86" gradientTransform="translate(1795.79 800.91) scale(1.67)" xlink:href="#Sfumatura_senza_nome_112"/><clipPath id="clip-path-77" transform="translate(0 14)"><path class="cls-1" d="M196.85,112.79l.29,0a5.81,5.81,0,0,0,.39-2.15l-.29,0-.39,2.15"/></clipPath><linearGradient id="Sfumatura_senza_nome_112-77" x1="-1053.23" y1="-528.77" x2="-1052.47" y2="-528.77" gradientTransform="translate(3114.18 1576.42) scale(2.77)" xlink:href="#Sfumatura_senza_nome_112"/><clipPath id="clip-path-78" transform="translate(0 14)"><path class="cls-1" d="M186.88,88.31c.46-.44.47-.55.09-1.52-.54.76-.55,1.08-.09,1.52"/></clipPath><linearGradient id="Sfumatura_senza_nome_112-78" x1="-1000.11" y1="-397.73" x2="-999.35" y2="-397.73" gradientTransform="translate(1864.47 755.75) scale(1.68)" xlink:href="#Sfumatura_senza_nome_112"/><clipPath id="clip-path-79" transform="translate(0 14)"><path class="cls-1" d="M150.51,103.09l.69,2.18.31-.1c-.24-.76-.48-1.44-.76-2.17l-.28.09"/></clipPath><linearGradient id="Sfumatura_senza_nome_112-79" x1="-1024" y1="-463.4" x2="-1023.24" y2="-463.4" gradientTransform="translate(2320.74 1086.53) scale(2.12)" xlink:href="#Sfumatura_senza_nome_112"/><clipPath id="clip-path-80" transform="translate(0 14)"><path class="cls-1" d="M163.29,58.41c.05.7.09,1.39.15,2.1h.42c-.12-.71-.24-1.4-.36-2.09h-.21"/></clipPath><linearGradient id="Sfumatura_senza_nome_112-80" x1="-1039.96" y1="-481.95" x2="-1039.2" y2="-481.95" gradientTransform="translate(2583.73 1182.4) scale(2.33)" xlink:href="#Sfumatura_senza_nome_112"/><clipPath id="clip-path-81" transform="translate(0 14)"><polyline class="cls-1" points="131.82 121.84 132.71 123.83 133.01 123.69 132.07 121.72 131.82 121.84"/></clipPath><linearGradient id="Sfumatura_senza_nome_112-81" x1="-997.37" y1="-411.75" x2="-996.6" y2="-411.75" gradientTransform="translate(1905.31 855.69) scale(1.78)" xlink:href="#Sfumatura_senza_nome_112"/><clipPath id="clip-path-82" transform="translate(0 14)"><path class="cls-1" d="M153.83,68.86l.3,1.74.29,0a1.75,1.75,0,0,0-.38-1.76h-.21"/></clipPath><linearGradient id="Sfumatura_senza_nome_112-82" x1="-1013.99" y1="-429.36" x2="-1013.23" y2="-429.36" gradientTransform="translate(2050.88 872.63) scale(1.87)" xlink:href="#Sfumatura_senza_nome_112"/><clipPath id="clip-path-83" transform="translate(0 14)"><path class="cls-1" d="M173.72,102.91c.14,0,.38,0,.41-.13.15-.45.14-.87-.68-1l.27,1.15"/></clipPath><linearGradient id="Sfumatura_senza_nome_112-83" x1="-944.78" y1="-282.77" x2="-944.02" y2="-282.77" gradientTransform="translate(1334.39 450.15) scale(1.23)" xlink:href="#Sfumatura_senza_nome_112"/><clipPath id="clip-path-84" transform="translate(0 14)"><path class="cls-1" d="M150.25,141.33l1,2.54.23-.1c-.35-.84-.69-1.68-1-2.53l-.21.09"/></clipPath><linearGradient id="Sfumatura_senza_nome_112-84" x1="-1025.03" y1="-481.17" x2="-1024.27" y2="-481.17" gradientTransform="translate(2427.52 1210.76) scale(2.22)" xlink:href="#Sfumatura_senza_nome_112"/><clipPath id="clip-path-85" transform="translate(0 14)"><path class="cls-1" d="M151.49,169l.76,2.59.25-.07c-.25-.86-.5-1.73-.76-2.6l-.24.08"/></clipPath><linearGradient id="Sfumatura_senza_nome_112-85" x1="-1034.35" y1="-506.77" x2="-1033.59" y2="-506.77" gradientTransform="translate(2726.87 1432.07) scale(2.49)" xlink:href="#Sfumatura_senza_nome_112"/><clipPath id="clip-path-86" transform="translate(0 14)"><path class="cls-1" d="M143.82,144.11a.53.53,0,0,0-.16.41c.14.51.33,1,.5,1.52l.22,0c-.08-.27-.19-.54-.26-.82a2.81,2.81,0,0,1,0-.58,2.7,2.7,0,0,1,.08-.41c-.1,0-.24-.07-.31-.07h-.06"/></clipPath><linearGradient id="Sfumatura_senza_nome_112-86" x1="-1013.14" y1="-454.73" x2="-1012.38" y2="-454.73" gradientTransform="translate(2199.43 1068.16) scale(2.03)" xlink:href="#Sfumatura_senza_nome_112"/><clipPath id="clip-path-87" transform="translate(0 14)"><path class="cls-1" d="M202.93,144.21l.24.11c.32-.71.63-1.43,1-2.15l-.26-.11-.93,2.15"/></clipPath><linearGradient id="Sfumatura_senza_nome_112-87" x1="-1059.94" y1="-551.99" x2="-1059.18" y2="-551.99" gradientTransform="translate(3479.51 1848.83) scale(3.09)" xlink:href="#Sfumatura_senza_nome_112"/><clipPath id="clip-path-88" transform="translate(0 14)"><path class="cls-1" d="M168,90.19c0,.55,0,1.1.08,1.64h.37c0-.54-.09-1.08-.13-1.63H168"/></clipPath><linearGradient id="Sfumatura_senza_nome_112-88" x1="-1018.31" y1="-442.58" x2="-1017.55" y2="-442.58" gradientTransform="translate(2171.53 962.88) scale(1.97)" xlink:href="#Sfumatura_senza_nome_112"/><clipPath id="clip-path-89" transform="translate(0 14)"><path class="cls-1" d="M171.48,104.8c-.11-.76-.2-1.35-.32-2.08-.48.57-.35,1.24.32,2.08"/></clipPath><linearGradient id="Sfumatura_senza_nome_112-89" x1="-1019.07" y1="-447.48" x2="-1018.31" y2="-447.48" gradientTransform="translate(2194.37 992.72) scale(1.99)" xlink:href="#Sfumatura_senza_nome_112"/><clipPath id="clip-path-90" transform="translate(0 14)"><path class="cls-1" d="M173.36,38.64h.2V37.08c-.61.71-.61,1-.2,1.52"/></clipPath><linearGradient id="Sfumatura_senza_nome_112-90" x1="-1015.56" y1="-417.36" x2="-1014.8" y2="-417.36" gradientTransform="translate(2001.64 789.11) scale(1.8)" xlink:href="#Sfumatura_senza_nome_112"/><clipPath id="clip-path-91" transform="translate(0 14)"><polyline class="cls-1" points="124.8 102.79 125.5 104.31 125.82 104.16 125.06 102.64 124.79 102.77"/></clipPath><linearGradient id="Sfumatura_senza_nome_112-91" x1="-969.2" y1="-343.64" x2="-968.44" y2="-343.64" gradientTransform="translate(1539.15 605.2) scale(1.46)" xlink:href="#Sfumatura_senza_nome_112"/><clipPath id="clip-path-92" transform="translate(0 14)"><polyline class="cls-1" points="157.91 122.04 158.52 123.95 158.62 123.91 158.17 121.97 157.91 122.04"/></clipPath><linearGradient id="Sfumatura_senza_nome_112-92" x1="-1006.26" y1="-432" x2="-1005.49" y2="-432" gradientTransform="translate(2029.6 926.46) scale(1.86)" xlink:href="#Sfumatura_senza_nome_112"/><clipPath id="clip-path-93" transform="translate(0 14)"><path class="cls-1" d="M173.06,107l.09,1.9a1.71,1.71,0,0,1,.32,0c0-.64-.07-1.27-.1-1.9h-.31"/></clipPath><linearGradient id="Sfumatura_senza_nome_112-93" x1="-1030.63" y1="-478.92" x2="-1029.87" y2="-478.92" gradientTransform="translate(2460.89 1171.13) scale(2.22)" xlink:href="#Sfumatura_senza_nome_112"/><clipPath id="clip-path-94" transform="translate(0 14)"><path class="cls-1" d="M125.8,188.44l-.93-1.52c-.14,1,.1,1.35.93,1.52"/></clipPath><linearGradient id="Sfumatura_senza_nome_112-94" x1="-906.65" y1="-258.04" x2="-905.89" y2="-258.04" gradientTransform="translate(1175.08 486.99) scale(1.16)" xlink:href="#Sfumatura_senza_nome_112"/><clipPath id="clip-path-95" transform="translate(0 14)"><path class="cls-1" d="M197.39,78.08l.36.08c.1-.54.22-1.08.32-1.62l-.35-.1-.33,1.64"/></clipPath><linearGradient id="Sfumatura_senza_nome_112-95" x1="-1034.18" y1="-473.68" x2="-1033.42" y2="-473.68" gradientTransform="translate(2429.1 1098.81) scale(2.16)" xlink:href="#Sfumatura_senza_nome_112"/><clipPath id="clip-path-96" transform="translate(0 14)"><path class="cls-1" d="M198.47,177.88l.19.14,1.52-2-.19-.14c-.49.67-1,1.34-1.52,2"/></clipPath><linearGradient id="Sfumatura_senza_nome_112-96" x1="-1061.6" y1="-562.9" x2="-1060.84" y2="-562.9" gradientTransform="translate(3681.84 2023.25) scale(3.28)" xlink:href="#Sfumatura_senza_nome_112"/><clipPath id="clip-path-97" transform="translate(0 14)"><path class="cls-1" d="M138.78,78.92a4.34,4.34,0,0,0,.06.88c0,.12.26.2.39.29.08-.15.25-.34.21-.45a6.35,6.35,0,0,0-.44-.81l-.22.09"/></clipPath><linearGradient id="Sfumatura_senza_nome_112-97" x1="-943.25" y1="-272.05" x2="-942.48" y2="-272.05" gradientTransform="translate(1289.73 411.36) scale(1.22)" xlink:href="#Sfumatura_senza_nome_112"/><clipPath id="clip-path-98" transform="translate(0 14)"><path class="cls-1" d="M140.75,129.9l.44,1.42.17-.06c-.12-.48-.24-1-.35-1.45l-.26.09"/></clipPath><linearGradient id="Sfumatura_senza_nome_112-98" x1="-971.76" y1="-355.43" x2="-971" y2="-355.43" gradientTransform="translate(1594.13 662.57) scale(1.5)" xlink:href="#Sfumatura_senza_nome_112"/><clipPath id="clip-path-99" transform="translate(0 14)"><path class="cls-1" d="M127.79,49.27l.41,1.29.26-.07a1,1,0,0,0-.45-1.3l-.2.08"/></clipPath><linearGradient id="Sfumatura_senza_nome_112-99" x1="-960.46" y1="-291.68" x2="-959.7" y2="-291.68" gradientTransform="translate(1384.25 431.97) scale(1.31)" xlink:href="#Sfumatura_senza_nome_112"/><clipPath id="clip-path-100" transform="translate(0 14)"><path class="cls-1" d="M182,224.82c0,.07.23.18.35.27l.49-.72-.57-.28a5.29,5.29,0,0,0-.27.76"/></clipPath><linearGradient id="Sfumatura_senza_nome_112-100" x1="-908.19" y1="-284.68" x2="-907.43" y2="-284.68" gradientTransform="translate(1237.17 554.81) scale(1.16)" xlink:href="#Sfumatura_senza_nome_112"/><clipPath id="clip-path-101" transform="translate(0 14)"><path class="cls-1" d="M144.7,97.17c.15.52.3,1,.45,1.52l.33-.1L145,97.07l-.32.09"/></clipPath><linearGradient id="Sfumatura_senza_nome_112-101" x1="-992.33" y1="-388.49" x2="-991.57" y2="-388.49" gradientTransform="translate(1789.76 742.77) scale(1.66)" xlink:href="#Sfumatura_senza_nome_112"/><clipPath id="clip-path-102" transform="translate(0 14)"><path class="cls-1" d="M169.62,108.14c.06.62.1,1.24.16,1.87h.27l-.14-1.89h-.26"/></clipPath><linearGradient id="Sfumatura_senza_nome_112-102" x1="-1024.78" y1="-468.12" x2="-1024.02" y2="-468.12" gradientTransform="translate(2333.09 1096.79) scale(2.11)" xlink:href="#Sfumatura_senza_nome_112"/><clipPath id="clip-path-103" transform="translate(0 14)"><polyline class="cls-1" points="148.74 112.12 149.41 113.75 149.63 113.66 149.01 112.02 148.74 112.12"/></clipPath><linearGradient id="Sfumatura_senza_nome_112-103" x1="-980.77" y1="-375.63" x2="-980.01" y2="-375.63" gradientTransform="translate(1670.8 695.1) scale(1.55)" xlink:href="#Sfumatura_senza_nome_112"/><clipPath id="clip-path-104" transform="translate(0 14)"><path class="cls-1" d="M172.66,109.72c0,.64.06,1.29.09,1.93H173l-.15-1.92h-.21"/></clipPath><linearGradient id="Sfumatura_senza_nome_112-104" x1="-1029.34" y1="-473.44" x2="-1028.58" y2="-473.44" gradientTransform="translate(2422.4 1145.76) scale(2.19)" xlink:href="#Sfumatura_senza_nome_112"/><clipPath id="clip-path-105" transform="translate(0 14)"><path class="cls-1" d="M135.68,158.87c.22.51.43,1,.65,1.52l.3-.11-.68-1.52-.27.11"/></clipPath><linearGradient id="Sfumatura_senza_nome_112-105" x1="-964.52" y1="-362.18" x2="-963.76" y2="-362.18" gradientTransform="translate(1573.2 699.22) scale(1.49)" xlink:href="#Sfumatura_senza_nome_112"/><clipPath id="clip-path-106" transform="translate(0 14)"><path class="cls-1" d="M196.35,115a.55.55,0,0,1,.25,0c.12-.63.25-1.27.37-1.91a.66.66,0,0,1-.27,0c-.11.63-.23,1.27-.35,1.91"/></clipPath><linearGradient id="Sfumatura_senza_nome_112-106" x1="-1042.66" y1="-503.48" x2="-1041.9" y2="-503.48" gradientTransform="translate(2779.42 1362.7) scale(2.48)" xlink:href="#Sfumatura_senza_nome_112"/><clipPath id="clip-path-107" transform="translate(0 14)"><path class="cls-1" d="M196,113.53l.24.06c.16-.68.31-1.37.47-2.07l-.24,0c-.16.69-.31,1.38-.47,2.06"/></clipPath><linearGradient id="Sfumatura_senza_nome_112-107" x1="-1050.74" y1="-524.79" x2="-1049.98" y2="-524.79" gradientTransform="translate(3023.88 1524.2) scale(2.69)" xlink:href="#Sfumatura_senza_nome_112"/><clipPath id="clip-path-108" transform="translate(0 14)"><path class="cls-1" d="M191.2,81h.29l.12-1.76h-.23L191.2,81"/></clipPath><linearGradient id="Sfumatura_senza_nome_112-108" x1="-1033" y1="-474.01" x2="-1032.24" y2="-474.01" gradientTransform="translate(2433.15 1108.73) scale(2.17)" xlink:href="#Sfumatura_senza_nome_112"/><clipPath id="clip-path-109" transform="translate(0 14)"><polyline class="cls-1" points="132.86 42.98 133.34 44.7 133.52 44.64 133.11 42.91 132.84 43"/></clipPath><linearGradient id="Sfumatura_senza_nome_112-109" x1="-1006.33" y1="-401.92" x2="-1005.57" y2="-401.92" gradientTransform="translate(1884.65 743.12) scale(1.74)" xlink:href="#Sfumatura_senza_nome_112"/><clipPath id="clip-path-110" transform="translate(0 14)"><path class="cls-1" d="M209.57,117.21l.21.08.77-1.8-.24-.11c-.24.61-.46,1.22-.71,1.83"/></clipPath><linearGradient id="Sfumatura_senza_nome_112-110" x1="-1046.57" y1="-513.7" x2="-1045.81" y2="-513.7" gradientTransform="translate(2887.89 1431.4) scale(2.56)" xlink:href="#Sfumatura_senza_nome_112"/><clipPath id="clip-path-111" transform="translate(0 14)"><path class="cls-1" d="M200.48,121.82a6.9,6.9,0,0,1-.49,2.29c-.17.59-.34,1.19-.51,1.77,1.4-1.95,1.37-4.33,2.22-6.45l-.34-.12a7.86,7.86,0,0,0-.88,2.51"/></clipPath><linearGradient id="Sfumatura_senza_nome_112-111" x1="-1110.68" y1="-656.01" x2="-1109.91" y2="-656.01" gradientTransform="translate(9769.87 5777.43) scale(8.62)" xlink:href="#Sfumatura_senza_nome_112"/></defs><title>Risorsa 3</title><g id="Livello_2" data-name="Livello 2"><g id="Livello_1-2" data-name="Livello 1"><g id="Logo_Hyperink" data-name="Logo Hyperink"><rect class="cls-1" y="14" width="350" height="350"/><g id="Logo"><g id="Logo_-_Hyperink" data-name="Logo - Hyperink"><rect class="cls-2" x="141.55" y="214.82" width="7.86" height="7.86"/><polyline class="cls-3" points="156.61 254.36 144.41 254.36 144.41 237.94 160.83 237.94 160.83 250.66"/><polyline class="cls-4" points="178.32 287.77 178.32 274.06 222.84 274.06 222.84 318.58 178.32 318.58 178.32 306.38"/><rect class="cls-2" x="226.72" y="127.27" width="4.21" height="4.21"/><rect class="cls-5" x="173.15" y="269.73" width="3.08" height="3.07"/><rect class="cls-5" x="224.42" y="232.04" width="3.07" height="3.08"/><rect class="cls-2" x="105.15" y="227.46" width="3.93" height="3.93"/><rect class="cls-5" x="123.84" y="180.47" width="3.93" height="3.93"/><rect class="cls-2" x="230.48" y="265.08" width="1.97" height="1.97"/><g id="Testo"><path d="M131.44,284.69v-1h-2.87v3.81a7.13,7.13,0,0,1-2.13,0v-9.14a6.35,6.35,0,0,1,2.13,0v3.53h2.88v-3.53a6.44,6.44,0,0,1,1.07-.09,6.35,6.35,0,0,1,1.07.09v9.14a5.15,5.15,0,0,1-1,.08,5.82,5.82,0,0,1-1.1-.08Z" transform="translate(0 14)"/><path d="M144.13,278.4a3.58,3.58,0,0,1,.86-.08,3.11,3.11,0,0,1,1,.16l.09.1-2.59,6.1v2.8a6.2,6.2,0,0,1-1,.09,6.59,6.59,0,0,1-1.09-.09v-2.79l-2.57-6a2.66,2.66,0,0,1,1.29-.36c.61,0,.89.25,1.12.85l.64,1.6a14,14,0,0,1,.61,1.9h.08a17.75,17.75,0,0,1,.68-2Z" transform="translate(0 14)"/><path d="M154.56,284.69H153.5v2.85a6.23,6.23,0,0,1-1.06.09,6.35,6.35,0,0,1-1.07-.09v-9.07l.09-.09c1.15,0,2.09-.06,3.1-.06a3.19,3.19,0,1,1,0,6.37m-1.06-1.6h.89c1.06,0,1.27-.9,1.27-1.53s-.21-1.52-1.27-1.52h-.89Z" transform="translate(0 14)"/><path d="M169.62,286.53a1.21,1.21,0,0,1-1.36,1h-3.54a1.17,1.17,0,0,1-1.24-1.08v-8l.1-.09h5.75a4,4,0,0,1,.08.84,2.82,2.82,0,0,1-.19.95h-3.64v1.89h3a3,3,0,0,1,0,1.73h-2.95v2h4.09c0,.25,0,.51,0,.76" transform="translate(0 14)"/><path d="M180.32,283.66a1.85,1.85,0,0,1,1,1.22l.4,1.14a2,2,0,0,0,.67,1,1.85,1.85,0,0,1-1.41.62c-.76,0-1-.41-1.32-1.22l-.48-1.4a1,1,0,0,0-1.13-.83h-.55v3.33a6.79,6.79,0,0,1-2.11,0v-9l.09-.09c1.14,0,2.18-.06,3.2-.06,1.86,0,3.23.88,3.23,2.9a2.59,2.59,0,0,1-1.62,2.44m-2.79-1.12h1c1,0,1.25-.62,1.25-1.3s-.23-1.29-1.25-1.29h-1Z" transform="translate(0 14)"/><path d="M188.25,278.4a2.63,2.63,0,0,1,.49,0,3,3,0,0,1,.52,0v9.14a3.05,3.05,0,0,1-.52,0,2.63,2.63,0,0,1-.49,0Z" transform="translate(0 14)"/><path d="M202.55,278.43v9.08c-.18,0-.51.05-.63.05a3,3,0,0,1-.64-.05l-3.24-6c-.35-.65-.63-1.24-.91-1.84h0c0,.83.08,1.95.08,2.88v5a3.91,3.91,0,0,1-.48.05,3.75,3.75,0,0,1-.47-.05v-9.14c.16,0,.5,0,.6,0a3.78,3.78,0,0,1,.64,0l3.24,6.05c.35.65.65,1.3.94,1.88h0c-.06-1-.1-2.12-.1-3.05V279c0-.45.1-.66.54-.66h.35Z" transform="translate(0 14)"/><path d="M214.9,287.58c-.44,0-.57-.23-.76-.67l-.8-2.17c-.42-1.1-.89-1.47-1.77-1.47h-1.08v4.21a3.05,3.05,0,0,1-.52,0,2.63,2.63,0,0,1-.49,0v-9.14a2.63,2.63,0,0,1,.49,0,3,3,0,0,1,.52,0v4.07h1c.23,0,.32-.11.46-.32l2-3.18c.2-.32.32-.49.72-.49h.55l.07.11L213,282.16a1.91,1.91,0,0,1-.41.49c.89.14,1.28.69,1.71,1.71l.81,2.09a1.86,1.86,0,0,0,.55.8.9.9,0,0,1-.71.35" transform="translate(0 14)"/></g><g class="cls-6"><rect class="cls-7" x="58.29" y="36.29" width="225.73" height="197.73" transform="matrix(0.57, -0.82, 0.82, 0.57, -37.73, 211.84)"/></g><g class="cls-8"><rect class="cls-9" x="188.85" y="80.15" width="29.07" height="23.79" transform="matrix(0.57, -0.82, 0.82, 0.57, 11.33, 219.86)"/></g><g class="cls-10"><rect class="cls-11" x="151.03" y="33.37" width="24.88" height="19.18" transform="translate(34.52 166.23) rotate(-55)"/></g><g class="cls-12"><rect class="cls-13" x="115.83" y="86.54" width="22.8" height="19.82" transform="translate(-24.75 159.35) rotate(-55)"/></g><g class="cls-14"><rect class="cls-15" x="192.88" y="181.43" width="9.06" height="7.7" transform="translate(-67.59 254.71) rotate(-55)"/></g><g class="cls-16"><rect class="cls-17" x="209.03" y="122.46" width="14.23" height="13.3" transform="translate(-13.59 246.11) rotate(-55)"/></g><g class="cls-18"><rect class="cls-19" x="191.09" y="145.96" width="23.04" height="20.92" transform="translate(-41.74 246.67) rotate(-55)"/></g><g class="cls-20"><rect class="cls-21" x="181.51" y="231.37" width="6.62" height="6.27" transform="translate(-113.28 265.39) rotate(-55)"/></g><g class="cls-22"><rect class="cls-23" x="140.35" y="141.83" width="13.58" height="11.99" transform="translate(-58.35 197.56) rotate(-55)"/></g><g class="cls-24"><rect class="cls-25" x="127" y="65.78" width="7.95" height="6.8" transform="translate(-0.82 150.78) rotate(-55)"/></g><g class="cls-26"><rect class="cls-27" x="134.18" y="30.82" width="13.07" height="10.42" transform="translate(30.49 144.62) rotate(-55)"/></g><g class="cls-28"><rect class="cls-29" x="154.37" y="214.03" width="4.92" height="4.34" transform="translate(-110.23 234.66) rotate(-55)"/></g><g class="cls-30"><rect class="cls-31" x="169.7" y="94.52" width="7.18" height="5.55" transform="matrix(0.57, -0.82, 0.82, 0.57, -5.81, 197.44)"/></g><g class="cls-32"><rect class="cls-33" x="187.38" y="115.63" width="8.73" height="6.87" transform="translate(-15.77 221.84) rotate(-55)"/></g><g class="cls-34"><rect class="cls-35" x="149.55" y="118.71" width="9.97" height="8.43" transform="translate(-34.8 193.01) rotate(-55)"/></g><g class="cls-36"><rect class="cls-37" x="204.14" y="147.83" width="9.05" height="8.3" transform="translate(-35.52 249.74) rotate(-55)"/></g><g class="cls-38"><rect class="cls-39" x="143.66" y="50.02" width="10.64" height="8.62" transform="matrix(0.57, -0.82, 0.82, 0.57, 19.02, 159.2)"/></g><g class="cls-40"><rect class="cls-41" x="147.66" y="25.75" width="3.5" height="3.63" transform="translate(41.13 148.15) rotate(-55)"/></g><g class="cls-42"><rect class="cls-43" x="139.47" y="180.49" width="3.67" height="4" transform="translate(-89.23 207.57) rotate(-55)"/></g><g class="cls-44"><rect class="cls-45" x="158.87" y="238.62" width="3.82" height="3.5" transform="translate(-128.34 248.2) rotate(-55)"/></g><g class="cls-46"><rect class="cls-47" x="209.28" y="123.27" width="8.69" height="7.75" transform="translate(-13.05 243.21) rotate(-55)"/></g><g class="cls-48"><rect class="cls-49" x="180.48" y="231.94" width="3.78" height="3.63" transform="translate(-113.72 263.07) rotate(-55)"/></g><g class="cls-50"><rect class="cls-51" x="133.56" y="50.72" width="4.61" height="4.09" transform="translate(14.71 147.79) rotate(-55)"/></g><g class="cls-52"><rect class="cls-53" x="160" y="193.72" width="4.78" height="3.86" transform="translate(-91.02 230.45) rotate(-55)"/></g><g class="cls-54"><rect class="cls-55" x="188.33" y="93.29" width="7.84" height="6.17" transform="translate(3.39 213.22) rotate(-55.2)"/></g><g class="cls-56"><rect class="cls-57" x="160.98" y="192.99" width="4.27" height="3.68" transform="translate(-90.04 230.7) rotate(-55)"/></g><g class="cls-58"><rect class="cls-59" x="201.94" y="138.35" width="6.97" height="6.24" transform="translate(-28.29 242.6) rotate(-55)"/></g><g class="cls-60"><rect class="cls-61" x="142.93" y="139.43" width="9.17" height="7.56" transform="translate(-54.41 195.9) rotate(-55)"/></g><g class="cls-62"><rect class="cls-63" x="143.84" y="154.98" width="8.95" height="7.51" transform="translate(-66.79 203.18) rotate(-55)"/></g><g class="cls-64"><rect class="cls-65" x="215.5" y="137.06" width="5.75" height="5.4" transform="translate(-21.37 252.48) rotate(-55)"/></g><g class="cls-66"><rect class="cls-67" x="117.83" y="48.35" width="4.4" height="3.85" transform="translate(10 133.76) rotate(-55)"/></g><g class="cls-68"><rect class="cls-69" x="162.42" y="189.15" width="4.09" height="3.3" transform="translate(-86.07 230.95) rotate(-55.2)"/></g><g class="cls-70"><rect class="cls-71" x="157.54" y="125.45" width="4.02" height="3.34" transform="translate(-36.09 198.9) rotate(-55)"/></g><g class="cls-72"><rect class="cls-73" x="155.06" y="174.19" width="4.76" height="4.07" transform="translate(-77.12 218.91) rotate(-55.2)"/></g><g class="cls-74"><rect class="cls-75" x="114.36" y="82.85" width="5.35" height="4.85" transform="translate(-19.94 146.23) rotate(-55)"/></g><g class="cls-76"><rect class="cls-77" x="184.63" y="102.43" width="3.64" height="2.8" transform="translate(-5.55 211) rotate(-55)"/></g><g class="cls-78"><rect class="cls-79" x="158.44" y="32.91" width="3.02" height="2.64" transform="translate(40.17 159.62) rotate(-55)"/></g><g class="cls-80"><rect class="cls-81" x="149.41" y="184.7" width="2.58" height="2.32" transform="translate(-87.98 216.7) rotate(-55)"/></g><g class="cls-82"><rect class="cls-83" x="207.53" y="125.84" width="4.21" height="3.72" transform="translate(-15.21 240.17) rotate(-55)"/></g><g class="cls-84"><rect class="cls-85" x="156.19" y="169.26" width="3.97" height="3.57" transform="translate(-72.66 216.51) rotate(-55)"/></g><g class="cls-86"><rect class="cls-87" x="149.72" y="147.2" width="5.9" height="5.23" transform="translate(-57.61 202.95) rotate(-55)"/></g><g class="cls-88"><rect class="cls-89" x="202.46" y="177.99" width="2.83" height="2.45" transform="translate(-59.86 257.42) rotate(-55)"/></g><g class="cls-90"><rect class="cls-91" x="190.73" y="107.53" width="5.3" height="4.24" transform="translate(-7.36 219.16) rotate(-55)"/></g><g class="cls-92"><rect class="cls-93" x="152.45" y="98.09" width="3" height="2.56" transform="translate(-15.75 182.48) rotate(-55)"/></g><g class="cls-94"><rect class="cls-95" x="235.1" y="233.14" width="1.98" height="2.03" transform="matrix(0.57, -0.82, 0.82, 0.57, -91.13, 307.24)"/></g><g class="cls-96"><rect class="cls-97" x="193.06" y="115.18" width="4.6" height="3.78" transform="translate(-12.59 223.95) rotate(-55)"/></g><g class="cls-98"><rect class="cls-99" x="187.82" y="199.47" width="2.36" height="2.16" transform="translate(-83.69 254.33) rotate(-55)"/></g><g class="cls-100"><rect class="cls-101" x="197.32" y="152.55" width="3.73" height="3.47" transform="translate(-41.45 242.95) rotate(-55)"/></g><g class="cls-102"><rect class="cls-103" x="106.53" y="77.75" width="2.58" height="2.38" transform="translate(-18.69 135.99) rotate(-55)"/></g><g class="cls-104"><rect class="cls-105" x="195.86" y="208.66" width="3.61" height="3.84" transform="translate(-88.21 265.71) rotate(-55)"/></g><g class="cls-106"><rect class="cls-107" x="167.7" y="112.23" width="3.57" height="2.81" transform="matrix(0.57, -0.82, 0.82, 0.57, -20.81, 201.3)"/></g><g class="cls-108"><rect class="cls-109" x="167.28" y="241.32" width="2.07" height="1.96" transform="translate(-126.71 255.2) rotate(-55)"/></g><g class="cls-110"><rect class="cls-111" x="121.87" y="68.76" width="2.51" height="2.29" transform="translate(-4.76 144.66) rotate(-55)"/></g><g class="cls-112"><rect class="cls-113" x="176.37" y="88.13" width="3.37" height="2.51" transform="matrix(0.57, -0.82, 0.82, 0.57, 2.71, 197.97)"/></g><g class="cls-114"><rect class="cls-115" x="143" y="110.94" width="4.03" height="3.45" transform="translate(-30.45 180.83) rotate(-55)"/></g><g class="cls-116"><rect class="cls-117" x="182.87" y="213.31" width="1.96" height="1.71" transform="translate(-96.94 256.88) rotate(-55.2)"/></g><g class="cls-118"><rect class="cls-119" x="150.94" y="34.76" width="2.24" height="2.01" transform="translate(35.54 153.81) rotate(-55)"/></g><g class="cls-120"><rect class="cls-121" x="191.26" y="87.38" width="2.38" height="1.98" transform="translate(9.68 209.33) rotate(-55)"/></g><g class="cls-122"><rect class="cls-123" x="150.89" y="144.51" width="3.04" height="2.7" transform="translate(-54.35 201.75) rotate(-55.2)"/></g><g class="cls-124"><rect class="cls-125" x="125.13" y="57.54" width="4.31" height="3.72" transform="translate(5.62 143.59) rotate(-55)"/></g><g class="cls-126"><rect class="cls-127" x="154.09" y="167.36" width="2.38" height="2.29" transform="translate(-71.82 213.05) rotate(-55)"/></g><g class="cls-128"><rect class="cls-129" x="169.74" y="82.46" width="2.57" height="2.18" transform="translate(4.49 189.72) rotate(-55)"/></g><g class="cls-130"><rect class="cls-131" x="206.98" y="152.69" width="3.57" height="3.45" transform="translate(-37.47 250.85) rotate(-55)"/></g><g class="cls-132"><rect class="cls-133" x="117.55" y="125.86" width="2.89" height="2.77" transform="translate(-53.49 165.73) rotate(-55)"/></g><g class="cls-134"><rect class="cls-135" x="172.06" y="92.8" width="3.06" height="2.32" transform="translate(-2.94 196.26) rotate(-55)"/></g><g class="cls-136"><rect class="cls-137" x="162.77" y="81.38" width="3.16" height="2.49" transform="translate(2.4 183.86) rotate(-55)"/></g><g class="cls-138"><rect class="cls-139" x="148.49" y="109.41" width="3.79" height="3.27" transform="translate(-26.83 184.54) rotate(-55)"/></g><g class="cls-140"><rect class="cls-141" x="197.9" y="90.21" width="2.37" height="1.98" transform="matrix(0.57, -0.82, 0.82, 0.57, 10.19, 215.97)"/></g><g class="cls-142"><rect class="cls-143" x="212.43" y="141.27" width="2.69" height="2.53" transform="matrix(0.57, -0.82, 0.82, 0.57, -25.6, 249.89)"/></g><g class="cls-144"><rect class="cls-145" x="210.98" y="139.64" width="2.96" height="2.74" transform="translate(-24.91 248.16) rotate(-55)"/></g><g class="cls-146"><rect class="cls-147" x="144.39" y="126.02" width="2.58" height="2.24" transform="translate(-42.03 187.54) rotate(-55)"/></g><g class="cls-148"><rect class="cls-149" x="168.56" y="117.36" width="2.71" height="2.05" transform="translate(-24.52 203.66) rotate(-55)"/></g><g class="cls-150"><rect class="cls-151" x="202.23" y="81.3" width="2.1" height="1.8" transform="translate(19.35 215.56) rotate(-55)"/></g><g class="cls-152"><rect class="cls-153" x="202.64" y="172.95" width="3.33" height="3.34" transform="translate(-55.92 255.82) rotate(-55)"/></g><g class="cls-154"><rect class="cls-155" x="156.19" y="171.83" width="2.96" height="2.93" transform="translate(-74.72 217.05) rotate(-55)"/></g><g class="cls-156"><rect class="cls-157" x="148.25" y="138.63" width="2.57" height="2.39" transform="translate(-50.77 196.11) rotate(-55)"/></g><g class="cls-158"><rect class="cls-159" x="196.09" y="110.83" width="2.19" height="1.81" transform="translate(-7.44 223.17) rotate(-55)"/></g><g class="cls-160"><rect class="cls-161" x="186" y="86.75" width="1.77" height="1.63" transform="translate(7.96 204.42) rotate(-55)"/></g><g class="cls-162"><rect class="cls-163" x="149.79" y="103.06" width="2.43" height="2.12" transform="translate(-20.9 182.1) rotate(-55)"/></g><g class="cls-164"><rect class="cls-165" x="162.54" y="58.62" width="2.06" height="1.68" transform="translate(21.05 173.34) rotate(-55)"/></g><g class="cls-166"><rect class="cls-167" x="131.2" y="121.68" width="2.41" height="2.18" transform="translate(-44.11 174.81) rotate(-55)"/></g><g class="cls-168"><rect class="cls-169" x="153.26" y="68.89" width="1.93" height="1.68" transform="translate(8.65 170.06) rotate(-55)"/></g><g class="cls-170"><rect class="cls-171" x="173.13" y="101.67" width="1.42" height="1.34" transform="translate(-9.7 200.04) rotate(-55)"/></g><g class="cls-172"><rect class="cls-173" x="149.44" y="141.29" width="2.87" height="2.53" transform="translate(-52.44 198.38) rotate(-55)"/></g><g class="cls-174"><rect class="cls-175" x="150.61" y="169.03" width="2.77" height="2.36" transform="translate(-74.61 211.09) rotate(-55)"/></g><g class="cls-176"><rect class="cls-177" x="142.99" y="144.19" width="2.02" height="1.73" transform="translate(-57.42 193.82) rotate(-55)"/></g><g class="cls-178"><rect class="cls-179" x="202.25" y="142.05" width="2.54" height="2.27" transform="translate(-30.5 241.77) rotate(-55)"/></g><g class="cls-180"><rect class="cls-181" x="167.38" y="90.33" width="1.62" height="1.32" transform="translate(-2.81 190.57) rotate(-55)"/></g><g class="cls-182"><rect class="cls-183" x="169.84" y="102.51" width="2.15" height="1.84" transform="translate(-11.57 198.74) rotate(-55.2)"/></g><g class="cls-184"><rect class="cls-185" x="172.44" y="37.17" width="1.61" height="1.39" transform="translate(42.86 172.06) rotate(-55)"/></g><g class="cls-186"><rect class="cls-187" x="124.34" y="102.59" width="1.95" height="1.8" transform="matrix(0.57, -0.82, 0.82, 0.57, -31.33, 160.78)"/></g><g class="cls-188"><rect class="cls-189" x="157.25" y="122.08" width="2.03" height="1.72" transform="translate(-33.22 196.07) rotate(-55)"/></g><g class="cls-190"><rect class="cls-191" x="172.37" y="107.21" width="1.81" height="1.44" transform="translate(-14.52 201.96) rotate(-55)"/></g><g class="cls-192"><rect class="cls-193" x="124.32" y="186.77" width="1.9" height="1.78" transform="translate(-100.31 196.64) rotate(-55)"/></g><g class="cls-194"><rect class="cls-195" x="196.55" y="76.27" width="1.8" height="1.54" transform="translate(21.49 209.19) rotate(-55.2)"/></g><g class="cls-196"><rect class="cls-197" x="197.95" y="175.64" width="2.72" height="2.61" transform="translate(-59.96 252.72) rotate(-55)"/></g><g class="cls-198"><rect class="cls-199" x="138.4" y="78.81" width="1.45" height="1.3" transform="translate(-5.76 161.84) rotate(-55)"/></g><g class="cls-200"><rect class="cls-201" x="140.23" y="129.47" width="1.59" height="1.36" transform="translate(-46.34 185.66) rotate(-55.2)"/></g><g class="cls-202"><rect class="cls-203" x="127.42" y="49.11" width="1.65" height="1.53" transform="translate(13.83 140.31) rotate(-55)"/></g><g class="cls-204"><rect class="cls-205" x="181.78" y="223.95" width="1.3" height="1.26" transform="translate(-106.17 259.2) rotate(-55)"/></g><g class="cls-206"><rect class="cls-207" x="144.2" y="97.1" width="1.79" height="1.58" transform="translate(-18.31 174.6) rotate(-55)"/></g><g class="cls-208"><rect class="cls-209" x="168.94" y="108.34" width="1.79" height="1.43" transform="translate(-16.92 199.62) rotate(-55)"/></g><g class="cls-210"><rect class="cls-211" x="148.23" y="112.02" width="1.92" height="1.71" transform="translate(-28.85 184.34) rotate(-55)"/></g><g class="cls-212"><rect class="cls-213" x="171.77" y="109.62" width="1.8" height="1.4" transform="translate(-16.47 203.14) rotate(-55.2)"/></g><g class="cls-214"><rect class="cls-215" x="135.21" y="158.71" width="1.9" height="1.72" transform="translate(-72.65 193.58) rotate(-55)"/></g><g class="cls-216"><rect class="cls-217" x="195.68" y="113.26" width="1.97" height="1.64" transform="translate(-9.59 223.74) rotate(-55)"/></g><g class="cls-218"><rect class="cls-219" x="195.32" y="111.63" width="2.15" height="1.8" transform="translate(-8.43 222.86) rotate(-55)"/></g><g class="cls-220"><rect class="cls-221" x="190.56" y="79.44" width="1.68" height="1.35" transform="translate(15.99 204.95) rotate(-55)"/></g><g class="cls-222"><rect class="cls-223" x="132.27" y="42.99" width="1.85" height="1.58" transform="translate(20.93 141.77) rotate(-55)"/></g><g class="cls-224"><rect class="cls-225" x="209" y="115.4" width="2.1" height="1.87" transform="matrix(0.57, -0.82, 0.82, 0.57, -5.72, 235.67)"/></g><g class="cls-226"><rect class="cls-227" x="197.26" y="119.79" width="6.67" height="5.6" transform="translate(-14.89 230.59) rotate(-55)"/></g><g class="cls-226"><rect class="cls-227" x="197.26" y="119.79" width="6.67" height="5.6" transform="translate(-14.89 230.59) rotate(-55)"/></g></g></g></g></g></g></svg>