<svg xmlns="http://www.w3.org/2000/svg" viewBox="0 0 984.9 153.46"><title>Risorsa 2</title><g id="Livello_2" data-name="Livello 2"><g id="Livello_1-2" data-name="Livello 1"><path d="M21.89,65.68H0V21.89H21.89Zm43.79,87.56H0V131.35H65.68ZM87.57,21.89H21.89V0H87.57ZM65.68,87.57H21.89V65.68H65.68Zm21.89,43.78H65.68V87.57H87.57Z"/><path d="M131.79,21.89H109.9V0h21.89Zm0,131.35H109.9V43.78h21.89Z"/><path d="M174.91,87.57H153V65.68h21.89Zm43.79,65.67H153V131.35H218.7Zm21.89-87.56H174.91V43.78h65.68ZM218.7,109.46H174.91V87.57H218.7Zm21.89,21.89H218.7V109.46h21.89Z"/><path d="M415.5,153H393.61V65.46H349.83V153H327.94V65.46H284.15V153H262.26V43.56H393.61v21.9H415.5Z"/><path d="M460.16,21.89H438.27V0h21.89Zm0,131.35H438.27V43.78h21.89Z"/><path d="M503.28,153.24H481.39V131.35h21.89Z"/><path d="M613,65.68H591.07V87.57H547.28v65.67H525.39V0h65.68V21.89H613Zm-21.89,0V21.89H547.28V65.68Z"/><path d="M657.18,21.89H635.29V0h21.89Zm0,131.35H635.29V43.78h21.89Z"/><path d="M765.32,153.46H677.76V109.68h21.89V87.79h43.78V65.89H677.76V44h87.56V87.79H743.43v21.89H699.65v21.89h65.67Z"/><path d="M874.78,153.46H787.21V109.68h21.9V87.79h43.78V65.89H787.21V44h87.57V87.79H852.89v21.89H809.11v21.89h65.67Z"/><path d="M984.9,153.24H919.22V131.35H897.33V109.46h21.89V87.57H963V65.68H919.22V43.78H963v21.9H984.9ZM963,131.35V109.46H919.22v21.89Z"/></g></g></svg>